<?xml version="1.0" encoding="utf-8"?>
<!-- Generator: Adobe Illustrator 25.0.1, SVG Export Plug-In . SVG Version: 6.00 Build 0)  -->
<svg version="1.1" id="Capa_1" xmlns="http://www.w3.org/2000/svg" xmlns:xlink="http://www.w3.org/1999/xlink" x="0px" y="0px"
	 viewBox="0 0 21.7 18.8" style="enable-background:new 0 0 21.7 18.8;" xml:space="preserve">
<style type="text/css">
	.st0{fill:#C23120;}
</style>
<g>
	<path class="st0" d="M4.1,11.1C4.1,11.1,4.1,11.1,4.1,11.1c0,0.1,0.1,0,0.1,0C4.2,11.1,4.2,11.1,4.1,11.1z"/>
	<path class="st0" d="M6.6,6.7c0.1,0,0.1,0,0.2,0c0,0,0.1,0,0.2,0c0.4,0.1,0.4,0.6,0.4,0.8c0,0.6-0.1,1-0.1,1.2
		c0,0.1-0.1,0.2-0.1,0.3c0.6-0.2,1.1-0.3,1.7-0.4c0.4-1,0.8-2.1,1.2-3.2c0.2-0.6,0.5-1.1,0.7-1.7c0.1,0.3,0.2,0.6,0.4,0.8
		c0.1,0.3,0.2,0.7,0.3,1c0.1-0.1,0.2-0.2,0.3-0.2C12.1,5.2,12.6,5,13,4.9c0.3-0.1,0.8-0.2,1.5-0.2c0,0,0.1,0,0.1,0
		c-0.4-0.8-0.7-1.7-1.1-2.5c-0.2-0.3-0.3-0.6-0.5-1H8.3C8.1,1.7,7.8,2.3,7.5,2.9C7.1,3.7,6.8,4.5,6.4,5.3c0,0.2,0.1,0.4,0.1,0.6
		C6.6,6.2,6.6,6.5,6.6,6.7z"/>
	<path class="st0" d="M6,14.3c-0.2,0-1-0.1-1.8-0.5c-0.3-0.1-0.7-0.4-0.8-0.7c-0.2,0.7-0.5,1.3-0.7,2c0,0,0,0,0,0
		c-0.4,1.1-0.8,2.2-1.2,3.4h4.2l1.4-4.3c-0.1,0-0.3,0-0.4,0C6.5,14.3,6.2,14.3,6,14.3z"/>
	<path class="st0" d="M17,13.4C17,13.4,17,13.4,17,13.4c-0.3,0.3-0.4,0.4-0.7,0.6c-0.5,0.4-1,0.7-1.5,0.9c-0.1,0.1-0.3,0.1-0.4,0.2
		l1.3,3.6h4.1c-0.7-2.1-1.4-4-2.2-5.9c0,0-0.1,0.1-0.1,0.1C17.3,13,17.2,13.2,17,13.4z"/>
</g>
<path class="st0" d="M15.7,7.5c-0.2,0-0.4-0.2-0.4-0.4s0.2-0.4,0.4-0.4c0.2,0,0.4,0.2,0.4,0.4S15.9,7.5,15.7,7.5z"/>
<path class="st0" d="M19.1,8c-0.2,0-0.4,0-0.6,0c0-0.1-0.1-0.2-0.1-0.4c-0.2-0.5-0.5-0.9-0.8-1.1c-0.2-0.2-0.6-0.6-1.2-1
	c-0.2-0.1-0.7-0.3-1.4-0.4c-0.8-0.1-1.4,0.1-1.8,0.2c-0.3,0.1-0.7,0.2-1.2,0.6c-0.1,0.1-0.6,0.4-1.2,1c-0.4,0.4-0.6,0.8-0.7,1
	C9.9,8,9.7,8.3,9.5,8.7c0,0-0.2,0.3-0.2,0.3c0,0,0,0,0,0.1c-0.7,0-1.7,0.2-2.8,0.7c0.1-0.2,0.2-0.6,0.3-1.1c0-0.1,0.1-0.5,0.1-1.1
	c0-0.4-0.1-0.4-0.1-0.4C6.7,7.1,6.4,7.5,6.2,7.9c0.1-0.8,0-1.4-0.1-1.9C5.8,3.6,4.6,2.2,3.9,1.3C3.4,0.7,3.2,0.6,3.1,0.7
	C2.8,0.8,3,2.2,3.2,3.4C2.5,2.5,1,0.7,0.4,0.9C-0.2,1.3,0.9,4.5,1,4.6c0.6,1.6,1.3,2.8,1.8,3.5C1.6,7.6,1.3,7.6,1.2,7.7
	C1,8,2.3,9.2,2.5,9.4c0.9,0.8,1.4,1.3,2.1,1.4c0,0.1,0,0.1,0,0.2C4.7,11.3,5,11.5,5,11.6c-0.6,0-1.3,0-1.9,0c-0.1,0-0.3,0-0.4,0
	c0,0.1,0.1,0.2,0.2,0.4c0.6,0.8,1.9,0.8,1.9,0.9c0,0.1-1,0-1,0.1c0,0.1,0.5,0.4,0.6,0.4c0.7,0.3,1.3,0.4,1.6,0.4
	c0.9,0.1,1.6,0,1.9-0.1c0.9-0.2,2.2-0.4,3.2-1.4c0.3-0.3,0.7-0.8,0.9-1.3c0,0,0,0,0.1,0c0.1,0-0.1,1-0.7,1.7
	C10.5,13.9,9,14,8.6,14.2c-0.4,0-0.7-0.1-1-0.1c0.4,0.2,0.7,0.3,1.1,0.5c0.2,0,0.4,0.1,0.6,0.1c0.3,0.1,0.8,0.2,1.3,0.2
	c0.4,1.2,0.9,2.5,1.3,3.7c0.3,0,0.6,0,1,0c-0.4-1.2-0.8-2.4-1.3-3.6c0.1,0,0.2,0,0.3,0c0.4,1.2,0.9,2.4,1.3,3.6c0.3,0,0.6,0,1,0
	c-0.4-1.2-0.9-2.4-1.3-3.7c0.5-0.1,1.1-0.2,1.7-0.4c0.4-0.2,0.9-0.4,1.5-0.9c0.2-0.1,0.4-0.3,0.5-0.4c0,0,0,0,0,0c0,0,0,0,0,0
	c0.2-0.2,0.4-0.4,0.5-0.6c0.6-0.8,0.9-1.5,1-1.7c0.1-0.3,0.3-0.7,0.4-1.3c0-0.1,0-0.2,0-0.3c0.1,0,0.3,0.1,0.3,0.1
	c1.1,0.1,2.5-0.2,2.6-0.5C21.5,8.4,20.1,8.1,19.1,8z M16.5,8.3c0,0.1,0,0.3-0.1,0.5c0,0-0.1,0.2-0.4,0.4c-0.1,0.1-0.3,0.2-0.5,0.3
	c-0.1,0-0.4,0.1-0.6-0.1c-0.3-0.1-0.4-0.4-0.5-0.5c-0.2-0.4-0.2-0.8-0.2-1c0-0.3,0-0.7,0.3-1c0.1-0.1,0.3-0.4,0.7-0.4
	c0.4-0.1,0.8,0.1,0.9,0.2c0.4,0.3,0.5,0.7,0.6,0.9C16.5,7.9,16.5,8.1,16.5,8.3z"/>
</svg>
