<?xml version="1.0" encoding="utf-8"?>
<!-- Generator: Adobe Illustrator 25.0.1, SVG Export Plug-In . SVG Version: 6.00 Build 0)  -->
<svg version="1.1" id="Capa_2_1_" xmlns="http://www.w3.org/2000/svg" xmlns:xlink="http://www.w3.org/1999/xlink" x="0px" y="0px"
	 viewBox="0 0 221.7 213.8" style="enable-background:new 0 0 221.7 213.8;" xml:space="preserve">
<style type="text/css">
	.st0{fill:#FFFFFF;}
	.st1{fill-rule:evenodd;clip-rule:evenodd;}
</style>
<g>
	<g>
		<g>
			<path d="M190.7,88.7c-0.5,0-1-0.4-1-0.9c0-0.6,0.4-1,0.9-1.1c5.1-0.3,9.8-2.4,12.9-5.8c-6,1.7-10.9,1.3-13.5-1.5
				c-2.2-2.3-2.9-6.7-1.9-11.1c0.9-3.8,2.8-6.5,5.3-7.5c2.3-0.9,5.3-0.4,8.2,1.4c4,2.5,6.8,6.6,7.2,10.4c0.1,1.5-0.1,3-0.6,4.5
				c2.8-1.3,5.8-3,9-5.2c0.5-0.3,1.1-0.2,1.4,0.2c0.3,0.5,0.2,1.1-0.2,1.4c-3.9,2.7-7.8,4.9-11.4,6.3c-0.4,0.7-0.9,1.4-1.5,2
				C202,85.8,196.6,88.3,190.7,88.7L190.7,88.7z M195.8,62.3c-0.6,0-1.2,0.1-1.7,0.3c-1.8,0.7-3.4,3-4.1,6.1
				c-0.8,3.7-0.3,7.5,1.4,9.3c2.1,2.3,7.3,2.7,14,0.2c1-1.8,1.4-3.7,1.3-5.4c-0.3-3.2-2.8-6.8-6.2-8.9
				C198.8,62.9,197.2,62.3,195.8,62.3z"/>
			<path d="M190.8,90.7L190.8,90.7c-1.7,0-3.1-1.3-3.1-2.9c0-1.5,1-2.8,2.5-3.1l0.3,0c1.6-0.1,3.2-0.4,4.7-0.9
				c-2.8-0.3-5.1-1.3-6.7-3.1c-2.6-2.8-3.6-7.7-2.4-12.9c1.1-4.5,3.4-7.7,6.5-8.9c2.9-1.1,6.6-0.6,10,1.6c4.5,2.8,7.7,7.5,8.1,11.9
				c0,0.4,0,0.8,0,1.1c1.7-1,3.5-2.1,5.2-3.3l0.1-0.1c1.4-0.8,3.1-0.5,4,0.7l0.1,0.2c0.8,1.4,0.5,3.1-0.7,4c-4,2.8-7.8,4.9-11.2,6.3
				c-0.4,0.7-0.9,1.2-1.4,1.8C203.1,87.5,197.3,90.3,190.8,90.7L190.8,90.7z M195.8,64.3c-0.4,0-0.7,0.1-1,0.2c-1,0.4-2.3,2-2.9,4.7
				c-0.8,3.5-0.1,6.4,0.9,7.5c1.3,1.4,5.3,2,11.1,0c0.5-1.2,0.8-2.5,0.7-3.7c-0.2-2.5-2.4-5.6-5.3-7.3
				C197.6,64.5,196.5,64.3,195.8,64.3z"/>
		</g>
	</g>
	<g>
		<g>
			<path class="st0" d="M17.7,134.7c2.9-9.8,10.3-30.3,29.5-48.5c8.9-8.4,27.8-23.5,56-28c6.5-1,26.1-3.5,49,4
				c10.4,3.4,24,7.9,35,21c8.6,10.2,11.4,20.8,13,27c1.7,6.5,6.2,25.4-2.5,46.5c-5.7,13.9-14.7,22.8-20.5,27.5
				c-0.3,8.7-0.7,17.3-1,26c-15.6,1.6-23.8,1.1-24.5-1.5c-0.4-1.3,1.1-3.1,4.5-5.5c0-3,0-6,0-9c-7.6,1.7-16.9,3.1-27.5,3.5
				c-9,0.3-17.1-0.2-24-1c-4,3.3-8,6.7-12,10c0,1.3,0,2.7,0,4c-15.1,1.6-23.1,0.9-24-2c-0.5-1.6,1.1-4,5-7c0.8-3.5,1.7-7,2.5-10.5
				c-3.8-0.8-7.8-1.8-12-3c-5.7-1.7-10.9-3.6-15.5-5.5c-8.2,0.5-16.3,1-24.5,1.5c-7.1-14-12.5-24.2-16.5-31.5c-2.3-4.3-5-9.1-3-13
				C7.2,134.8,15.7,134.7,17.7,134.7z"/>
			<path d="M79.5,213.5c-9.8,0-12.1-2.1-12.8-4.2c-0.8-2.5,0.9-5.4,5.1-8.7c0.4-1.5,0.7-3.1,1.1-4.6c0.3-1.1,0.5-2.2,0.8-3.2
				c-3.2-0.7-6.6-1.6-10.1-2.6c-5.2-1.5-10.3-3.3-15.3-5.4L23,186.3l-0.6-1.2c-6.3-12.3-11.8-22.9-16.5-31.4l-0.2-0.4
				c-2.4-4.6-5.2-9.8-2.8-14.5c2.4-4.7,8.8-5.9,13.3-6.1c5.7-18.4,15.9-35,29.6-48c11.3-10.7,30.4-24.3,57.1-28.5
				c16.7-2.6,34-1.2,49.9,4.1c10.3,3.4,24.5,8,35.9,21.6c9,10.7,11.9,21.8,13.4,27.8c4.4,16.8,3.5,32.9-2.6,47.8
				c-5.5,13.4-14,22.4-20.4,27.7c-0.1,4-0.3,8.1-0.5,12.1c-0.2,4.3-0.3,8.6-0.5,13l-0.1,1.7l-1.7,0.2c-20.9,2.1-25.7,0.4-26.6-3
				c-0.8-2.6,1.7-5,4.4-7v-5.5c-8.2,1.7-16.7,2.7-25.4,3c-7.8,0.3-15.6-0.1-23.5-0.9c-1.8,1.5-3.6,3-5.4,4.5
				c-1.8,1.5-3.5,2.9-5.3,4.4v4.9l-1.8,0.2C87.4,213.3,83,213.5,79.5,213.5z M49,180.7l0.4,0.2c5,2.1,10.2,3.9,15.3,5.4
				c4.1,1.2,8.1,2.2,11.8,3l2,0.4l-0.5,2c-0.4,1.8-0.8,3.5-1.3,5.3c-0.4,1.7-0.8,3.5-1.2,5.2l-0.2,0.7l-0.6,0.4
				c-4.3,3.3-4.3,4.8-4.3,4.8c0.1,0.1,1.7,2.6,20.1,0.8v-3.1l0.7-0.6c2-1.6,4-3.3,6-5c2-1.7,4-3.4,6-5l0.7-0.5l0.8,0.1
				c7.9,0.9,15.9,1.2,23.7,1c9.3-0.4,18.5-1.5,27.1-3.5l2.4-0.5v12.5l-0.8,0.6c-2.6,1.9-3.4,2.9-3.6,3.3c0.8,0.5,4.5,1.8,20.5,0.3
				c0.1-3.8,0.3-7.5,0.4-11.3c0.2-4.3,0.3-8.6,0.5-13l0-0.9l0.7-0.6c6.1-5,14.5-13.6,19.9-26.7c5.8-14,6.6-29.2,2.4-45.2
				c-1.5-5.7-4.2-16.3-12.6-26.2c-10.7-12.7-24.2-17.2-34.1-20.4c-19.4-6.4-36.9-5.6-48.1-3.9c-25.7,4.1-44,17.2-54.9,27.5
				c-13.5,12.8-23.5,29.3-29,47.6l-0.4,1.4h-1.5c-5.8,0-10,1.5-11.2,3.9c-1.5,2.9,0.7,6.9,2.8,10.8l0.2,0.4
				c4.5,8.3,9.9,18.5,15.9,30.4L49,180.7z"/>
		</g>
		<g>
			<path d="M79.4,212.6c-9,0-11.1-1.8-11.6-3.5c-0.7-2.1,0.9-4.6,5.1-7.9L75,192c-3.7-0.8-7.4-1.7-11.1-2.8
				c-5.2-1.5-10.4-3.4-15.4-5.4l-24.3,1.5c-0.4,0-0.8-0.2-1-0.5C17.4,173,12,162.7,6.8,153.2l-0.1-0.1c-2.4-4.5-5.2-9.5-2.9-13.8
				c2.4-4.7,9.5-5.5,13.1-5.5c3.9-13,12.2-31.8,29.6-48.2c11.1-10.5,30-24,56.5-28.3c9.4-1.5,28.2-3,49.5,4
				c10.2,3.4,24.3,8,35.5,21.3c8.9,10.6,11.7,21.5,13.2,27.4c4.3,16.8,3.4,32.7-2.5,47.1c-4.3,10.5-11.4,20.1-20.4,27.6l-1,25.6
				c0,0.5-0.4,0.9-0.9,1c-21.4,2.2-24.9,0.1-25.6-2.2c-0.5-1.7,0.9-3.7,4.5-6.3v-7.2c-8.7,1.8-17.6,2.9-26.5,3.3
				c-7.9,0.3-15.9,0-23.7-1l-11.3,9.4v3.5c0,0.5-0.4,0.9-0.9,1C87.2,212.3,82.8,212.6,79.4,212.6z M48.7,181.7c0.1,0,0.3,0,0.4,0.1
				c5,2.1,10.2,3.9,15.4,5.5c3.9,1.2,7.9,2.2,11.9,3c0.3,0.1,0.5,0.2,0.6,0.4s0.2,0.5,0.1,0.8L74.6,202c-0.1,0.2-0.2,0.4-0.4,0.6
				c-4.7,3.7-4.8,5.4-4.7,5.9c0.3,1.1,3.2,3.3,22,1.4v-3.1c0-0.3,0.1-0.6,0.4-0.8l12-10c0.2-0.2,0.5-0.3,0.8-0.2
				c7.9,0.9,15.9,1.3,23.8,1c9.2-0.3,18.4-1.5,27.3-3.5c0.3-0.1,0.6,0,0.8,0.2s0.4,0.5,0.4,0.8v9c0,0.3-0.2,0.6-0.4,0.8
				c-4.3,3-4.2,4.2-4.1,4.4c0.1,0.5,1.9,2.9,22.6,0.9l1-25.1c0-0.3,0.1-0.6,0.4-0.7c8.9-7.4,15.9-16.7,20.2-27.1
				c5.8-14.1,6.6-29.5,2.5-45.9c-1.5-5.7-4.2-16.3-12.8-26.6c-10.8-12.9-24.5-17.4-34.5-20.7c-20.9-6.9-39.4-5.4-48.5-4
				c-26,4.2-44.5,17.4-55.5,27.7c-17.4,16.5-25.5,35.2-29.2,48.1c-0.1,0.4-0.5,0.7-1,0.7c-0.1,0-0.1,0-0.2,0
				c-2.5,0-9.8,0.4-11.9,4.5c-1.7,3.3,0.7,7.9,2.9,11.9l0.1,0.1c5.1,9.4,10.4,19.5,16.2,30.9L48.7,181.7L48.7,181.7z"/>
			<path d="M79.4,214.6c-8.3,0-12.5-1.5-13.5-4.9c-1.2-3.6,2-7,5.2-9.6l1.5-6.6c-3.4-0.8-6.4-1.6-9.3-2.4c-4.5-1.3-9.5-3-15.2-5.3
				l-24,1.5c-1.1,0-2.1-0.5-2.7-1.4l-0.1-0.2c-5.3-10.7-10.6-20.9-16.2-31.3l-0.1-0.1l-0.3-0.6c-2.4-4.5-5.4-10.2-2.7-15.3
				c2.6-5.2,9.4-6.3,13.4-6.5c4.1-13.1,12.6-31.5,29.7-47.7c11.3-10.7,30.5-24.4,57.6-28.8c9.6-1.5,28.8-3,50.4,4.1l0.3,0.1
				c10.4,3.5,24.6,8.2,36.1,21.8c9.2,11,12.1,22.2,13.6,28.2c4.4,17.2,3.5,33.4-2.6,48.4c-4.3,10.6-11.3,20.2-20.3,27.8l-1,24.7
				c0,1.3-1.1,2.6-2.5,2.9l-0.2,0c-21.6,2.2-26.5,0.4-27.7-3.6c-0.9-3.1,1.7-5.8,4.4-7.9V198c-8,1.5-16.2,2.5-24.4,2.9
				c-8,0.3-15.7,0-23.2-0.9l-9.9,8.2v2.6c0,1.4-1.1,2.7-2.5,3l-0.2,0C86.6,214.4,82.5,214.6,79.4,214.6z M71.7,207.9
				c1.2,0.5,5.3,1.4,17.8,0.2v-1.3c0-1,0.4-1.8,1.2-2.4l11.9-9.9c0.7-0.6,1.6-0.9,2.5-0.7c8.2,0.9,16,1.3,23.4,1
				c9-0.3,18-1.4,26.9-3.4c1-0.3,2,0,2.7,0.7c0.4,0.4,1,1.1,1,2.2v9c0,1.1-0.6,1.8-1,2.2l-0.3,0.2c-1.2,0.9-2,1.5-2.5,2
				c1.9,0.4,6.7,0.8,17.9-0.1l0.9-23.4c0-1,0.5-1.9,1.3-2.3c8.6-7.2,15.3-16.3,19.4-26.2c5.6-13.6,6.4-28.6,2.4-44.7l-0.1-0.2
				c-1.4-5.5-4.1-15.8-12.3-25.6c-10.4-12.4-23.8-16.8-33.5-20.1c-20.3-6.7-38.5-5.3-47.6-3.9c-25.4,4.1-43.6,17-54.4,27.2
				c-17.2,16.3-25,34.6-28.6,47.2c-0.3,1.2-1.5,2.1-2.9,2.1h-0.2c-3.9,0-8.8,0.9-10.1,3.4c-1.2,2.4,1.1,6.8,2.7,9.8l0.1,0.1l0.1,0.3
				c5,9.2,10.1,19,15.6,29.8l22.7-1.4c0.5,0,1,0.1,1.4,0.3c4.5,1.9,9.4,3.6,15,5.4c3.8,1.2,7.7,2.1,11.7,3l0.2,0.1
				c0.3,0.1,1.3,0.4,1.8,1.4c0.4,0.7,0.4,1.5,0.2,2.2l-2.5,10.7l-0.1,0.2c-0.1,0.3-0.3,0.7-0.8,1.1l-0.2,0.2
				C73.1,206,72.1,207.2,71.7,207.9z M71.5,208.4L71.5,208.4L71.5,208.4z"/>
		</g>
	</g>
	<g>
		<g>
			<path class="st0" d="M32.7,93.7c0,0-4.2,1-8,5c-4.9,5.2-6.6,15.5-4,27c2.2-5.8,5.3-12.7,10-20c3-4.7,6.1-8.6,9-12
				C38.2,93.4,35.7,93,32.7,93.7z"/>
			<path d="M20.2,132.6l-1.5-6.5c-2.7-12-1-23,4.5-28.8c4.2-4.4,8.8-5.5,9-5.6l0,0c3.3-0.8,6-0.4,7.8,0l3.3,0.7L41.2,95
				c-3.6,4.2-6.3,7.9-8.8,11.8c-3.9,6-7.1,12.4-9.8,19.6L20.2,132.6z M33.2,95.6c-0.2,0-3.8,1-7,4.4c-3.5,3.7-5.1,10.5-4.5,18.2
				c2.2-4.8,4.6-9.3,7.4-13.7c2.3-3.6,4.7-6.8,6.7-9.3C35,95.3,34.1,95.4,33.2,95.6z"/>
		</g>
		<g>
			<path d="M20.7,126.7L20.7,126.7c-0.5,0-0.9-0.3-1-0.8c-2.6-11.7-1-22.4,4.3-27.9c3.9-4.1,8.3-5.2,8.5-5.3l0,0
				c2.4-0.6,4.9-0.6,7.5,0c0.3,0.1,0.6,0.3,0.7,0.7c0.1,0.3,0,0.7-0.2,1c-3.2,3.7-6.2,7.7-8.9,11.9c-4,6.2-7.3,12.9-9.9,19.8
				C21.5,126.5,21.1,126.7,20.7,126.7z M32.9,94.7c-0.1,0-4,1.1-7.5,4.7c-4.2,4.5-5.9,13.1-4.4,22.7c2.4-5.9,5.4-11.6,8.8-16.9
				c2.4-3.7,5.1-7.4,7.9-10.8C36.2,94.2,34.5,94.3,32.9,94.7z"/>
			<path d="M20.1,129.5l-0.1-0.9c-1.1-0.3-2-1.1-2.3-2.3c-2.7-12.4-0.9-23.7,4.8-29.7c1.8-1.8,4.8-4.3,9.1-5.8l0.3-0.1
				c2.7-0.7,5.5-0.7,8.4,0l0.2,0.1c1,0.3,1.7,1.1,2,2c0.3,0.9,0.1,1.8-0.5,2.7L42,95.7c-3.2,3.7-6.1,7.6-8.7,11.7
				c-3.8,5.9-7.1,12.4-9.7,19.4l-0.1,0.2c-0.6,1.1-1.8,1.8-3,1.7L20.1,129.5z M33.3,96.7c-0.4,0.1-3.6,1.2-6.5,4.1
				c-2.6,2.8-4.1,7.6-4.3,13.2c1.7-3.4,3.6-6.7,5.6-9.9C29.8,101.6,31.5,99.1,33.3,96.7L33.3,96.7z"/>
		</g>
	</g>
	<g>
		<g>
			<path d="M153.7,70.7c-0.1,0-0.3,0-0.4-0.1c-11-4.5-22.7-6.9-34.6-6.9c-12.3-0.1-24.3,2.3-35.6,6.9c-0.5,0.2-1.1,0-1.3-0.5
				c-0.2-0.5,0-1.1,0.5-1.3c11.6-4.8,23.9-7.1,36.4-7.1c12.2,0.1,24.1,2.4,35.4,7.1c0.5,0.2,0.8,0.8,0.5,1.3
				C154.5,70.5,154.1,70.7,153.7,70.7z"/>
			<path d="M153.7,72.7c-0.5,0-1-0.1-1.3-0.3c-10.9-4.4-22.2-6.7-33.7-6.7c-11.9-0.1-23.6,2.2-34.8,6.8c-1.6,0.6-3.3-0.1-3.9-1.6
				c-0.6-1.5,0.1-3.3,1.6-3.9c11.6-4.8,24.1-7.2,37.1-7.2c12.7,0.1,24.8,2.5,36.2,7.3c0.8,0.3,1.4,1,1.7,1.8
				c0.2,0.7,0.2,1.4-0.1,2.1C156,72,155,72.7,153.7,72.7z M153.7,68.7l0,2L153.7,68.7C153.7,68.7,153.7,68.7,153.7,68.7z
				 M153.3,70.6C153.3,70.7,153.3,70.7,153.3,70.6C153.3,70.7,153.3,70.7,153.3,70.6z M83.1,70.6C83.1,70.6,83.1,70.6,83.1,70.6
				C83.1,70.6,83.1,70.6,83.1,70.6z"/>
		</g>
	</g>
	<g>
		<g>
			<path d="M23.7,172.7c-0.4,0-0.7-0.2-0.9-0.6l-13-26c-0.2-0.5,0-1.1,0.4-1.3c0.5-0.2,1.1,0,1.3,0.4l13,26c0.2,0.5,0,1.1-0.4,1.3
				C24,172.7,23.9,172.7,23.7,172.7z"/>
			<path d="M23.7,174.7c-1.2,0-2.1-0.6-2.7-1.7L7.9,146.8c-0.6-1.4,0-3.2,1.4-3.8l0.2-0.1c1.4-0.6,3.2,0,3.8,1.4l13.1,26.2
				c0.5,1.2,0.1,2.7-0.8,3.5C25.2,174.4,24.6,174.7,23.7,174.7z M23.7,171.6v1.1V171.6L23.7,171.6z M23.7,170.7v0.8l0,0L23.7,170.7
				C23.7,170.7,23.7,170.7,23.7,170.7z"/>
		</g>
	</g>
	<g>
		<g>
			<path class="st0" d="M38.7,139.7c-0.9,2.6,0.1,5.4,2,11c1.7,5,2.5,7.6,5,9c2.4,1.3,5.6,1.3,8,0c5.8-3.1,5.2-12.8,5-17
				c-0.3-4.6-0.5-8.2-3-10C51,129.3,40.8,133.4,38.7,139.7z"/>
			<path d="M49.7,162.7c-1.7,0-3.4-0.4-5-1.2c-3.1-1.7-4.1-4.7-5.7-9.5l-0.3-1c-1.9-5.6-2.9-8.7-1.8-11.8c1.3-3.8,5.2-7.3,9.9-8.8
				c3.9-1.3,7.6-1,10.1,0.8c3.2,2.3,3.5,6.5,3.8,11.3l0,0.5c0.2,4.9,0.7,14.9-6.1,18.6C53.1,162.3,51.4,162.7,49.7,162.7z
				 M51.4,133.5c-1,0-2.2,0.2-3.4,0.6c-3.5,1.1-6.5,3.7-7.4,6.3l0,0c-0.6,1.8,0.1,4,1.9,9.3l0.3,1c1.5,4.5,2.2,6.4,3.9,7.3
				c1.8,1,4.3,1,6.1,0c4.6-2.4,4.1-11.1,4-14.9l0-0.4c-0.3-4-0.5-7.1-2.2-8.3C53.7,133.8,52.7,133.5,51.4,133.5z"/>
		</g>
		<g>
			<path d="M49.7,161.7c-1.6,0-3.1-0.4-4.5-1.1c-2.7-1.5-3.6-4.2-5.3-9l-0.2-0.5c-2-5.8-3-8.7-2-11.6l0,0c1.2-3.5,4.8-6.7,9.3-8.2
				c3.7-1.2,7-0.9,9.3,0.7c2.9,2.1,3.1,5.9,3.4,10.8c0.2,4.3,0.8,14.5-5.5,17.9C52.8,161.3,51.3,161.7,49.7,161.7z M51.4,132.5
				c-1.2,0-2.4,0.2-3.8,0.6c-3.9,1.3-7,4-8,6.9l0,0c-0.7,2.3,0.2,5,2,10.4l0.2,0.5c1.5,4.5,2.3,6.8,4.4,7.9c2,1.1,4.9,1.1,7,0
				c5.2-2.8,4.7-12.1,4.5-16.1c-0.2-4.5-0.4-7.7-2.6-9.2C54.2,132.8,52.9,132.5,51.4,132.5z M38.7,139.7L38.7,139.7L38.7,139.7z"/>
			<path d="M49.7,163.7c-1.8,0-3.7-0.4-5.4-1.3c-3.4-1.9-4.5-5-6.2-9.8l-0.3-0.8c-2.1-6.1-3.3-9.4-2-13c1.4-4.1,5.5-7.7,10.6-9.4
				c4.3-1.4,8.2-1,11.1,1c3.7,2.7,3.9,7.1,4.2,12.1l0,0.4c0.2,4.7,0.7,15.6-6.6,19.5l-0.2,0.1C53.2,163.3,51.4,163.7,49.7,163.7z
				 M43.5,149.7l0.2,0.6c1.4,4.2,2.1,6,3.4,6.8c1.4,0.8,3.6,0.8,5.1,0c4-2.2,3.6-10.9,3.4-14.1c-0.2-4.2-0.4-6.8-1.7-7.7l-0.1-0.1
				c-0.5-0.4-1.4-0.6-2.5-0.6c-1,0-2,0.2-3.3,0.5c-3.2,1.1-5.9,3.3-6.7,5.6C41,142.3,41.9,144.9,43.5,149.7z"/>
		</g>
	</g>
	<g>
		<g>
			<path class="st0" d="M42.7,155.7c0.5-1,4,1.4,9,0c3.5-1,6.2-3.3,7-4c2.4-2.1,2.1-2.8,4-4c0.6-0.4,4.5-2.8,8-1c0.1,0.1,3,1.6,3,4
				c0,3.1-4.8,5.4-8,6c-3.6,0.7-6.6-0.4-8-1c-0.3,0.7-0.8,1.9-2,3c-2.4,2.2-5.4,2-6,2C45.6,160.4,42.2,156.7,42.7,155.7z"/>
			<path d="M50,162.7c-0.1,0-0.2,0-0.2,0l-0.3,0c-4-0.3-7.3-3.1-8.4-5c-0.8-1.3-0.6-2.3-0.3-2.9c0.9-1.8,2.9-1.4,4.2-1.1
				c1.5,0.3,3.6,0.8,6.1,0.1c2.1-0.6,4.2-1.8,6.2-3.6c1-0.9,1.4-1.4,1.8-2c0.5-0.7,1.1-1.4,2.4-2.2c0.8-0.6,5.5-3.4,10-1.1l0.3,0.2
				c3.1,2,3.7,4.1,3.7,5.6c0,4.5-5.9,7.3-9.6,8c-2.4,0.5-4.9,0.3-7.4-0.5c-0.4,0.6-0.9,1.3-1.6,2C55.2,161.9,52.9,162.7,50,162.7z
				 M49.8,158.7L49.8,158.7c0.8,0,2.9,0,4.6-1.5c0.2-0.2,0.4-0.4,0.6-0.6c-0.9,0.4-1.8,0.8-2.7,1c-1.7,0.5-3.2,0.6-4.6,0.5
				C48.3,158.4,49,158.6,49.8,158.7z M59,154.1c2.2,0.8,4.3,1.1,6.3,0.7c3.2-0.6,6.4-2.6,6.4-4c0-0.3-0.2-1.1-1.9-2.2
				c0,0-0.1,0-0.1-0.1c-2.6-1.2-5.7,0.8-5.9,0.9c-0.8,0.5-1,0.8-1.4,1.3c-0.5,0.6-1.1,1.4-2.4,2.5C59.7,153.5,59.3,153.8,59,154.1z"
				/>
		</g>
		<g>
			<path d="M50.3,161.7c-0.3,0-0.5,0-0.6,0c-3.6-0.3-6.6-2.8-7.6-4.4c-0.4-0.8-0.5-1.4-0.3-2l0,0c0.5-1.1,1.7-0.8,3-0.6
				c1.5,0.3,3.8,0.8,6.6,0c2.2-0.6,4.4-1.9,6.6-3.8c1-0.9,1.5-1.5,1.9-2.1c0.5-0.7,1-1.3,2.2-2c1.5-0.9,5.4-2.9,9-1
				c0.4,0.2,3.5,1.9,3.5,4.9c0,3.8-5.4,6.3-8.8,7c-3,0.6-5.7,0-7.7-0.7c-0.5,0.9-1.1,1.8-1.8,2.4C54.2,161.4,51.6,161.7,50.3,161.7z
				 M44,156.6c0.8,1.1,3,2.9,5.8,3.1c0.7,0.1,3.2,0.1,5.2-1.7c0.8-0.7,1.4-1.6,1.7-2.6c0.1-0.3,0.3-0.5,0.5-0.6
				c0.3-0.1,0.5-0.1,0.8,0c1.7,0.8,4.4,1.5,7.4,0.9s7.2-2.7,7.2-5c0-1.8-2.4-3.1-2.5-3.1c-2.7-1.4-5.8,0.2-7,1
				c-0.9,0.5-1.2,0.9-1.7,1.6c-0.5,0.6-1,1.3-2.2,2.3c-2.4,2.1-4.9,3.5-7.4,4.2c-3.2,0.9-5.9,0.3-7.5,0
				C44.3,156.6,44.2,156.6,44,156.6z M43.6,156.1L43.6,156.1L43.6,156.1z M42.7,155.7L42.7,155.7L42.7,155.7z"/>
			<path d="M50.3,163.7l-0.8,0c-4.5-0.4-8-3.5-9.1-5.3l-0.1-0.2c-0.4-0.8-0.9-2.1-0.4-3.5l0.1-0.2c1.1-2.4,3.6-2,4.8-1.8l0.5,0.1
				c1.4,0.3,3.3,0.7,5.5,0c1.9-0.5,3.8-1.6,5.8-3.4c0.9-0.8,1.3-1.3,1.5-1.7c0.6-0.9,1.3-1.7,2.9-2.6c2.2-1.3,6.7-3.3,10.9-1
				c0.4,0.2,4.6,2.4,4.6,6.7c0,5.4-6.8,8.2-10.4,9c-2.3,0.5-4.7,0.4-7.2-0.3c-0.4,0.6-0.9,1.1-1.3,1.5
				C55,163.3,51.9,163.7,50.3,163.7z M60.9,153.7c1.1,0.2,2.5,0.4,4.1,0.1c3-0.6,5.5-2.4,5.6-3c0-0.2-0.6-0.8-1.1-1.1l-0.3-0.2
				c-2-1-4.7,0.7-5,0.9l-0.1,0.1c-0.5,0.3-0.6,0.4-1,1l-0.3,0.4C62.3,152.2,61.8,152.9,60.9,153.7z"/>
		</g>
	</g>
	<g>
		<g>
			<path d="M42.7,137.7c-2.1,1.5-0.6,6.3,0,8c0.9,2.7,1.7,3,2,3c0.8,0.1,1.6-0.4,2-1c0.7-1,0.4-1.9,0-5c-0.4-3.5-0.2-4.4-1-5
				C44.9,137.1,43.5,137.1,42.7,137.7z"/>
			<path d="M44.9,150.7c-0.1,0-0.2,0-0.3,0c-2.3-0.1-3.4-3.3-3.8-4.4c-1.8-5.1-1.5-8.6,0.7-10.2c1.5-1.1,3.9-1.1,5.4,0
				c1.3,1,1.4,2.2,1.6,4.1c0.1,0.6,0.1,1.3,0.2,2.3c0.1,0.5,0.1,1,0.2,1.4c0.3,2.2,0.5,3.5-0.5,5C47.6,150,46.2,150.7,44.9,150.7z
				 M44.2,139.2c-0.1,0-0.2,0-0.3,0.1l0,0c-0.3,0.2-0.6,2,0.7,5.7c0.2,0.6,0.4,1,0.5,1.3c0-0.3,0-0.9-0.2-2
				c-0.1-0.4-0.1-0.9-0.2-1.4c-0.1-1-0.2-1.8-0.2-2.4c0-0.5-0.1-1-0.1-1.3C44.3,139.3,44.3,139.2,44.2,139.2z"/>
		</g>
	</g>
	<g>
		<g>
			<path class="st0" d="M56.7,94.7c-9-5.3-13.5-3.7-15-3c-7.9,3.9-9.6,21.9-2,45c13.4,3.6,26.5-2.5,31-13c4.8-11.1-2.4-22.2-3-23"/>
			<path d="M47.5,139.7c-2.7,0-5.5-0.4-8.3-1.1l-1-0.3l-0.3-1c-7.7-23.3-6.4-42.8,3-47.4c3-1.4,8.3-2,16.9,3.1l-2,3.4
				c-5.5-3.3-10.2-4.3-13.1-2.9c-6.1,3-8.6,18.6-1.3,41.5c11.7,2.7,23.4-2.4,27.6-12.1c4.5-10.5-2.7-20.9-2.8-21l3.2-2.4
				c0.1,0.1,8.7,12.4,3.2,25C68.5,134,58.5,139.7,47.5,139.7z"/>
		</g>
		<g>
			<path d="M47.5,138.8c-2.7,0-5.4-0.4-8.1-1.1c-0.3-0.1-0.6-0.3-0.7-0.7c-7.5-22.8-6.5-41.8,2.5-46.2c2.7-1.3,7.6-1.9,16,3
				c0.5,0.3,0.6,0.9,0.4,1.4c-0.3,0.5-0.9,0.6-1.4,0.4c-7.9-4.7-12.2-3.9-14.1-3c-6.6,3.3-9.4,19.5-1.7,43.3
				c12.4,3.1,24.9-2.2,29.3-12.6c4.6-10.7-2.6-21.6-2.9-22c-0.3-0.5-0.2-1.1,0.3-1.4s1.1-0.2,1.4,0.3c0.8,1.2,8,12.4,3.1,24
				C67.7,133.2,58.1,138.8,47.5,138.8z"/>
			<path d="M47.5,140.8c-2.8,0-5.6-0.4-8.6-1.2l-0.1,0c-1-0.3-1.7-1.1-2-2c-7.9-24.1-6.5-43.7,3.5-48.6c4.6-2.2,10.6-1.2,17.9,3.1
				c1.3,0.8,1.8,2.4,1.2,3.9l-0.1,0.3c-0.8,1.3-2.4,1.8-3.9,1.2l-0.3-0.1c-7.3-4.4-11-3.5-12.2-2.9c-4.9,2.4-8.3,16.4-1,39.8
				c11.1,2.3,22.1-2.6,25.9-11.7c4.2-9.8-2.6-19.9-2.7-20l-0.1-0.2c-0.9-1.5-0.4-3.3,1-4.1c0.7-0.4,1.5-0.5,2.2-0.4
				c0.8,0.2,1.5,0.7,1.9,1.4c1.4,2.1,8.4,13.6,3.2,25.8C69.3,134.6,59.1,140.8,47.5,140.8z M66.8,101.3
				C66.8,101.3,66.9,101.3,66.8,101.3C66.9,101.3,66.8,101.3,66.8,101.3z"/>
		</g>
	</g>
	<g>
		<g>
			<path d="M162.7,48.2c-13,0-23.5-10.5-23.5-23.5s10.5-23.5,23.5-23.5s23.5,10.5,23.5,23.5S175.7,48.2,162.7,48.2z M162.7,3.2
				c-11.9,0-21.5,9.6-21.5,21.5s9.6,21.5,21.5,21.5s21.5-9.6,21.5-21.5S174.6,3.2,162.7,3.2z"/>
			<path d="M162.7,50.2c-14.1,0-25.5-11.4-25.5-25.5s11.4-25.5,25.5-25.5s25.5,11.4,25.5,25.5S176.8,50.2,162.7,50.2z M162.7,5.2
				c-10.8,0-19.5,8.7-19.5,19.5s8.7,19.5,19.5,19.5s19.5-8.7,19.5-19.5S173.5,5.2,162.7,5.2z"/>
		</g>
	</g>
	<g id="path4">
		<g>
			<path class="st1" d="M155.3,27.8h-1.5v2.9h1.5v1.8h-1.5v2.9h1.5v3.8h2.9v-3.8h11.2v-2.9h-11.2v-1.8h11.2v-2.9h-11.2V26h8.8
				c4.5,0,8.1-3.6,8.1-8.1s-3.6-8.1-8.1-8.1h-11.8C155.2,17.2,155.3,23.9,155.3,27.8z M158.3,23.1h8.8c2.8,0,5.2-2.3,5.2-5.2
				s-2.3-5.2-5.2-5.2h-8.8V23.1z"/>
			<path d="M158.7,39.7h-3.9v-3.8h-1.5V32h1.5v-0.8h-1.5v-3.9h1.5c0-1.6,0-3.5,0-5.7c0-3.4-0.1-7.5-0.1-11.8V9.3H167
				c4.7,0,8.6,3.9,8.6,8.6s-3.9,8.6-8.6,8.6h-8.3v0.8h11.2v3.9h-11.2V32h11.2v3.9h-11.2V39.7z M155.8,38.7h1.9v-3.8h11.2V33h-11.2
				v-2.8h11.2v-1.9h-11.2v-2.8h9.3c4.2,0,7.6-3.4,7.6-7.6s-3.4-7.6-7.6-7.6h-11.3c0,4.1,0,8,0.1,11.2c0,2.5,0,4.6,0,6.3v0.5h-1.5
				v1.9h1.5V33h-1.5v1.9h1.5V38.7z M167.1,23.6h-9.3V12.2h9.3c3.2,0,5.7,2.5,5.7,5.7C172.8,21,170.2,23.6,167.1,23.6z M158.8,22.6
				h8.3c2.6,0,4.7-2.1,4.7-4.7c0-2.6-2.1-4.7-4.7-4.7h-8.3V22.6z"/>
		</g>
	</g>
</g>
</svg>
