<?xml version="1.0" encoding="utf-8"?>
<!-- Generator: Adobe Illustrator 25.0.1, SVG Export Plug-In . SVG Version: 6.00 Build 0)  -->
<svg version="1.1" id="Capa_2" xmlns="http://www.w3.org/2000/svg" xmlns:xlink="http://www.w3.org/1999/xlink" x="0px" y="0px"
	 viewBox="0 0 430.7 213.8" style="enable-background:new 0 0 430.7 213.8;" xml:space="preserve">
<g>
	<path d="M430.7,128.5c0.2-7.3-1.4-12.3-4.7-15.5c-3.3-3.5-8.3-4.8-15.7-4.8c-45.9,0.5-87.9,0.5-127.9,0c-4.8,0-10.7,0.3-14.7,4.3
		c-4,4-4.3,9.8-4.1,14.5c0.5,19,0.5,38.5,0.3,57.3c0,7.6,0,15.4,0,23.1c0,2.4,1.9,4.3,4.3,4.3c2.4,0,4.3-1.9,4.3-4.3
		c0-7.8,0-15.4,0-23.1c0-19,0.2-38.5-0.3-57.7c0-4.3,0.5-7.1,1.7-8.3c1.2-1.2,4-1.7,8.5-1.7c40.1,0.5,82,0.5,128.1,0
		c4.8,0,7.9,0.7,9.5,2.2c1.6,1.6,2.2,4.7,2.1,9.3c-0.3,18.8-0.2,37.8-0.2,56.3c0,7.8,0,15.4,0,23c0,2.4,1.9,4.3,4.3,4.3
		c2.4,0,4.3-1.9,4.3-4.1c0-7.6,0-15.4,0-23C430.3,166.2,430.3,147.2,430.7,128.5z"/>
	<path d="M247.7,176.3c-0.9,0-1.7,0-2.6,0c0-4.8,0-9.6,0-14.3c0-12.9-0.2-26.4,0.2-39.7c0.2-3.5-0.2-8.5-3.6-11.9
		c-4.1-4.1-10-3.8-12.1-3.6c-12.4,0.7-157.4,1-171.8-0.2c-1.9-0.2-7.9-0.7-12.1,3.5c-3.3,3.1-3.6,7.9-3.5,12.1
		c0.3,12.9,0.2,26.4,0.2,39.2c0,5,0,9.9,0,14.9c-9.8,0.1-15.8,0.3-18.1,0.5h-0.2c-3.3,0.3-5.5-0.2-6.7-1.4c-1.7-1.7-1.4-5.4-1.2-6.9
		c0.8-8.7,1-33,1-82.9l257.4,0.3c2.4,0,4.7-1,6.4-2.8c1.6-1.7,2.6-4,2.6-6.4V50.1c0-2.4-0.9-4.7-2.6-6.4c-1.3-1.3-3-2.2-4.8-2.4
		c0.5-0.7,0.8-1.6,0.7-2.6c-0.3-5.2-0.9-10.4-1.7-15.5c-1.2-7.1-1.9-11.2-4.5-14.7c-6.2-8.5-19.2-7.9-23.5-7.8
		c-16.1,0.5-84.6,0.2-179.5-0.5L38.5,0.1c-6.6-0.3-18.3,0.2-24.2,8.6c-2.6,3.6-3.1,7.9-4.1,15.5c-0.7,4.8-1,9.8-1,14.7
		c0,1.2,0.5,2.4,1.3,3.1c-3.1,1.5-5.3,4.6-5.3,8.3v26.1c0,2.9,1.4,5.4,3.5,7.1c0,37.6,0,73.4-1,84.2c-0.3,2.2-0.9,9,3.6,13.6
		c2.6,2.6,6.4,4,11.2,4c0.9,0,1.7,0,2.8,0c11.6-1,125-0.7,222.5-0.3c2.4,0,4.3-1.9,4.3-4.3C252,178.2,250.1,176.3,247.7,176.3z
		 M275.1,76.7c0,0.2,0,0.2-0.2,0.3c0,0.2-0.2,0.2-0.3,0.2L14.3,76.9c-0.3,0-0.5-0.2-0.5-0.5V50.1c0-0.3,0.2-0.5,0.5-0.5h132.7
		c-2.2,0.6-4.2,1.7-5.8,3.3c-0.9,0.9-1.4,1.4-1.9,2.4c-1.2,1.7-1.9,4-2.1,5.9v0.5h3.5h3.5v-0.3c0.5-2.8,2.6-4.8,5.4-5.2
		c1.7-0.2,3.6,0.3,5,1.6c1,0.9,1.6,2.1,1.9,3.3l0.2,0.5h3.5c2.9,0,3.5,0,3.5,0s0-0.5-0.2-0.9c-0.5-4.5-3.3-8.3-7.3-10.2
		c-0.8-0.4-1.7-0.7-2.6-0.9h121.2c0.2,0,0.2,0,0.3,0.2c0.2,0,0.2,0.2,0.2,0.3V76.7z M102.9,9c37.7,0.3,69.9,0.4,94.6,0.5
		c-0.1,0.3-0.1,0.6-0.1,1l1.6,28.5c0.1,0.8,0.4,1.6,0.9,2.2h-99.4c0.6-0.7,1.1-1.6,1.2-2.6l1.4-28.5C103.1,9.7,103,9.3,102.9,9z
		 M247.7,9.2h0.2c8.3-0.2,13.8,1.2,16.2,4.5c1.2,1.7,1.9,4.8,2.9,11c0.9,4.8,1.4,9.7,1.6,14.5c0.1,0.7,0.3,1.3,0.6,1.9h-32.7
		c0.7-0.8,1.2-1.9,1.1-3.1L236,9.6c0-0.1,0-0.1,0-0.2C241.1,9.4,245.1,9.3,247.7,9.2z M227.5,9.5c0,0.2,0,0.4,0,0.6l1.6,28.5
		c0.1,1,0.5,1.9,1.2,2.6h-23.6c0.6-0.8,0.9-1.7,0.8-2.8l-1.6-28.5c0-0.2-0.1-0.3-0.1-0.4C214.1,9.5,221.4,9.5,227.5,9.5z M67.8,8.7
		C77,8.8,86,8.8,94.7,8.9c0,0.2-0.1,0.4-0.1,0.7L93,38.1c0,1.2,0.4,2.3,1.2,3.1H56.3c0.6-0.7,1.1-1.6,1.2-2.6L59,10.1
		c0-0.5,0-1-0.1-1.4L67.8,8.7z M18.8,25.3c1-6.6,1.4-9.8,2.8-11.7c3.8-5.4,13.8-5.2,16.7-5h0.2l12.3,0.1c-0.1,0.3-0.2,0.6-0.2,1
		L49,38.1c-0.1,1.2,0.3,2.3,1,3.1H17.1c0.4-0.7,0.6-1.4,0.6-2.2C17.9,34.4,18.1,29.8,18.8,25.3z M230.6,115.2c1-0.2,4-0.3,5.4,1
		c0.9,0.9,1.2,2.8,1.2,5.7c-0.3,13.5-0.2,26.9-0.2,40.1c0,4.7,0,9.5,0,14.3c-21-0.1-40.2-0.1-57.8-0.2v-60.2
		C205,115.8,225.9,115.5,230.6,115.2z M138.9,176c-7.5,0-14.7,0-21.4,0v-60c7,0,14.2,0,21.4,0V176z M147.6,116c7.8,0,15.5,0,23-0.1
		v60.2c-8,0-15.7,0-23-0.1V116z M51.1,176.1c0-4.9,0-9.9,0-14.8c0-12.8,0.2-26.2-0.2-39.4c0-4,0.5-5.4,1-5.9c0.9-0.9,2.6-1.2,5.5-1
		c5.3,0.5,26,0.7,51.4,0.9V176C83.9,176,64.8,176,51.1,176.1z"/>
	<path d="M358.9,123.7c-6.4-5.5-18.1-7.3-25.6-1c-3.3,2.8-5.5,7.1-6,11.9c0,0.2,0,0.3,0,0.5l0.7,67.8c0,1.7,1,3.1,2.5,3.8
		c2.1,2.1,4.5,3.7,7.3,4.7c2.6,0.9,5,1.2,7.3,1.2c9.1,0,16.4-5.9,17.6-6.6c1.2-1.1,1.7-2.7,1.4-4.2l0.2-8.2
		c0.3-17.4,0.7-32.6,1.2-47.5C365.8,139.7,365.9,129.9,358.9,123.7z M335.9,149.2h20.8c-0.2,7.1-0.3,14.4-0.5,21.9h-20.1
		L335.9,149.2z M338.8,128.9c4.1-3.5,11-1.7,14.3,1c2.7,2.5,3.5,6.7,3.6,10.7h-21l-0.1-5.5C336.1,133.4,336.8,130.6,338.8,128.9z
		 M340.9,203.4c-1.6-0.6-3.1-1.6-4.5-3l-0.2-20.7H356c-0.1,4.3-0.2,8.8-0.4,13.5l-0.1,7.4C352.6,202.5,346.7,205.6,340.9,203.4z"/>
	<path d="M308.8,123.2c-6.4-5.5-18.1-7.3-25.6-1c-3.3,2.8-5.5,7.1-6,11.9c0,0.2,0,0.3,0,0.5l0.7,67.8c0,1.5,0.9,2.9,2.2,3.6
		c2.2,2.2,4.6,3.8,7.5,4.9c2.6,0.9,5,1.2,7.3,1.2c9.1,0,16.6-5.9,17.6-6.6c0.7-0.6,1.1-1.4,1.4-2.2c0.1-0.3,0.2-0.6,0.2-0.9l0.2-9.3
		c0.3-17.4,0.7-32.6,1.2-47.5C315.7,139.2,315.9,129.4,308.8,123.2z M285.8,148.7h20.8c-0.2,7.1-0.3,14.4-0.5,21.9H286L285.8,148.7z
		 M288.8,128.3c4.1-3.5,11-1.7,14.3,1c2.7,2.5,3.5,6.7,3.6,10.7h-21l-0.1-5.5C286,132.8,286.7,130.1,288.8,128.3z M290.7,202.9
		c-1.6-0.6-3-1.5-4.3-2.8l-0.2-20.9h19.8c-0.1,4.3-0.2,8.8-0.4,13.5l-0.1,7.4C302.7,201.9,296.7,205.1,290.7,202.9z"/>
	<path d="M409.6,124.9c-6.4-5.5-18.1-7.3-25.6-1c-3.3,2.8-5.5,7.1-6,11.9c0,0.2,0,0.3,0,0.5l0.7,67.8c0,1.5,0.9,2.8,2.1,3.5
		c2.2,2.3,4.7,3.9,7.6,5c2.6,0.9,5,1.2,7.3,1.2c9.1,0,16.6-5.9,17.6-6.6c0.7-0.6,1.1-1.4,1.4-2.2c0.1-0.3,0.2-0.6,0.2-0.9l0.2-9.3
		c0.3-17.4,0.7-32.6,1.2-47.5C416.5,140.9,416.7,131.1,409.6,124.9z M386.6,150.4h20.8c-0.2,7.1-0.3,14.4-0.5,21.9h-20.1
		L386.6,150.4z M389.6,130.1c4.1-3.5,11-1.7,14.3,1c2.7,2.5,3.5,6.7,3.6,10.7h-21l-0.1-5.5C386.8,134.6,387.5,131.8,389.6,130.1z
		 M391.5,204.7c-1.6-0.6-3-1.5-4.3-2.8l-0.2-20.9h19.8c-0.1,4.3-0.2,8.8-0.4,13.5l-0.1,7.4C403.5,203.7,397.5,206.9,391.5,204.7z"/>
	<path d="M197.6,146l0.2-0.7c0.9-4.8,4.7-8.5,9.5-9c3.1-0.3,6.4,0.7,8.6,2.8c1.7,1.6,2.9,3.6,3.3,5.9l0.2,1h6c5.2,0,6,0,6-0.2
		c0-0.2,0-0.9-0.2-1.6c-1-7.9-5.9-14.5-12.9-18c-1.7-0.9-3.8-1.6-5.7-1.9c-1.2-0.2-4-0.5-4.7-0.5c0.2,0.2-0.5,0.2-1.2,0.2
		c-5.2,0.3-10.2,2.6-14.2,6.4c-1.6,1.4-2.4,2.4-3.5,4.1c-2.1,3.1-3.3,6.9-3.6,10.4v1h6H197.6z"/>
	<path d="M204.7,154.6c1.4,0.7,2.2,0.9,3.8,0.9c1.2,0,1.6,0,2.4-0.3c1.4-0.5,2.4-1,3.5-2.2c0.9-0.9,1-1.2,1.6-2.1
		c0.7-1.6,0.9-2.4,0.9-4.1c0-2.1-0.3-3.1-1.6-4.7c-1.6-2.2-4.8-3.8-7.9-3.3c-3.3,0.5-6.2,2.9-7.1,6.2c-0.3,1-0.3,3.3,0,4.1
		C200.9,151.5,202.5,153.5,204.7,154.6z M205.7,144.7c1-1.2,2.4-1.6,3.8-1.2c1.2,0.3,2.4,1.6,2.6,2.9c0.3,1.6-0.5,3.3-2.1,4
		c-0.5,0.3-0.9,0.3-1.6,0.3c-0.9,0-1,0-1.6-0.3c-0.9-0.5-1.4-0.9-1.7-1.6C204.5,147.5,204.7,145.8,205.7,144.7z"/>
	<path d="M219.7,148.5l-0.2,0.9c-0.5,3.5-3.3,6.9-6.6,8.1c-1.6,0.7-2.2,0.7-4.1,0.7c-1.4,0-1.9,0-2.6-0.2c-4.3-1.2-7.4-4.5-8.1-9
		v-0.3h-6h-6l-0.5,0.7c0.3,4.1,2.2,9,5,12.3c0.9,1,2.6,2.8,3.6,3.6c6.9,5.7,16.7,6.7,24.9,2.6c2.4-1.2,4.1-2.4,6-4.3
		c3.8-3.8,6.2-8.8,6.7-14.3v-0.7h-6H219.7z"/>
	<path d="M69.9,145.4l0.2-0.7c0.9-4.8,4.7-8.5,9.5-9c3.1-0.3,6.4,0.7,8.6,2.8c1.7,1.6,2.9,3.6,3.3,5.9l0.2,1h6c5.2,0,6,0,6-0.2
		c0-0.2,0-0.9-0.2-1.6c-1-7.9-5.9-14.5-12.9-18c-1.7-0.9-3.8-1.6-5.7-1.9c-1.2-0.2-4-0.5-4.7-0.5c0.2,0.2-0.5,0.2-1.2,0.2
		c-5.2,0.3-10.2,2.6-14.2,6.4c-1.6,1.4-2.4,2.4-3.5,4.1c-2.1,3.1-3.3,6.9-3.6,10.4v1h6H69.9z"/>
	<path d="M79.7,138.2c-3.3,0.5-6.2,2.9-7.1,6.2c-0.3,1-0.3,3.3,0,4.1c0.7,2.4,2.2,4.5,4.5,5.5c1.4,0.7,2.2,0.9,3.8,0.9
		c1.2,0,1.6,0,2.4-0.3c1.4-0.5,2.4-1,3.5-2.2c0.9-0.9,1-1.2,1.6-2.1c0.7-1.6,0.9-2.4,0.9-4.1c0-2.1-0.3-3.1-1.6-4.7
		C85.9,139.2,82.7,137.8,79.7,138.2z M82.3,149.9c-0.5,0.3-0.9,0.3-1.6,0.3c-0.9,0-1,0-1.6-0.3c-0.9-0.5-1.4-0.9-1.7-1.6
		c-0.7-1.4-0.5-3.1,0.5-4.1c1-1.2,2.4-1.6,3.8-1.2c1.2,0.3,2.4,1.6,2.6,2.9C84.7,147.5,83.9,149.2,82.3,149.9z"/>
	<path d="M98,148h-6l-0.2,0.9c-0.5,3.5-3.3,6.9-6.6,8.1c-1.6,0.7-2.2,0.7-4.1,0.7c-1.4,0-1.9,0-2.6-0.2c-4.3-1.2-7.4-4.5-8.1-9v-0.3
		h-6h-6l-0.5,0.7c0.3,4.1,2.2,9,5,12.3c0.9,1,2.6,2.8,3.6,3.6c6.9,5.7,16.7,6.7,24.9,2.6c2.4-1.2,4.1-2.4,6-4.3
		c3.8-3.8,6.2-8.8,6.7-14.3V148H98z"/>
	<path d="M148.1,66.7c0.9,0.3,1.2,0.5,2.2,0.5c0.7,0,0.9,0,1.4-0.2c0.9-0.3,1.4-0.5,1.9-1.2c0.5-0.5,0.7-0.7,0.9-1.2
		c0.5-0.9,0.5-1.4,0.5-2.4c0-1.2-0.2-1.7-0.9-2.6c-1-1.4-2.9-2.2-4.7-2.1c-1.9,0.2-3.5,1.7-4,3.6c-0.2,0.5-0.2,1.9,0,2.4
		C145.8,65,146.9,66.2,148.1,66.7z M148.6,60.8c0.5-0.5,1.2-0.7,2.1-0.5c0.7,0.2,1.4,0.9,1.6,1.6c0.2,0.9-0.3,1.9-1.2,2.2
		c-0.3,0.2-0.5,0.2-0.9,0.2c-0.5,0-0.5,0-0.9-0.2c-0.5-0.2-0.7-0.5-1-0.9C147.9,62.4,147.9,61.5,148.6,60.8z"/>
	<path d="M156.2,63.3l-0.2,0.5c-0.3,1.9-1.9,3.8-3.8,4.7c-0.9,0.3-1.4,0.3-2.4,0.3c-0.7,0-1,0-1.6-0.2c-2.4-0.7-4.1-2.6-4.7-5v-0.2
		h-3.5h-3.5l0.3,0.2c0.2,2.4,1.2,5,2.8,6.9c0.5,0.5,1.6,1.6,2.1,2.1c4,3.3,9.5,3.8,14,1.6c1.4-0.7,2.2-1.4,3.5-2.4
		c2.2-2.2,3.5-5,3.8-8.1v-0.3h-3.5H156.2z"/>
</g>
</svg>
