<?xml version="1.0" encoding="utf-8"?>
<!-- Generator: Adobe Illustrator 25.0.1, SVG Export Plug-In . SVG Version: 6.00 Build 0)  -->
<svg version="1.1" id="Pokéball" xmlns="http://www.w3.org/2000/svg" xmlns:xlink="http://www.w3.org/1999/xlink" x="0px" y="0px"
	 viewBox="0 0 577.2 511.4" style="enable-background:new 0 0 577.2 511.4;" xml:space="preserve">
<style type="text/css">
	.st0{fill:#FFFFFF;}
	.st1{fill:#DFDFDF;}
	.st2{fill:#FF1C1C;}
	.st3{fill:#DF1818;}
</style>
<g id="Pokéball_1_">
	<g id="Colours">
		<path id="Down" class="st0" d="M321.4,339.6c-40.4,0-74.1-28.6-82.1-66.6H104.9c9.5,110.5,102.2,197.2,215.1,197.2
			S525.7,383.5,535.1,273H403.5C395.5,311.1,361.8,339.6,321.4,339.6z"/>
		<path id="Shadow_Down" class="st1" d="M369.4,464.6c89.6-21,157.7-97.7,165.7-191.6h-53C476.8,358.2,432.1,430.4,369.4,464.6z"/>
		<path id="Center" class="st0" d="M370.9,255.7L370.9,255.7C370.8,255.7,370.8,255.7,370.9,255.7c-0.1-6.1-1.2-11.9-3.2-17.3
			c-7-18.8-25.1-32.1-46.3-32.1s-39.3,13.4-46.3,32.1c-2,5.4-3.1,11.2-3.1,17.3l0,0h0.1l0,0c0,6.1,1.1,11.9,3.1,17.3
			c7,18.8,25.1,32.1,46.3,32.1s39.3-13.4,46.3-32.1C369.8,267.7,370.9,261.8,370.9,255.7L370.9,255.7z"/>
		<path id="Up" class="st2" d="M321.5,171.9c40.4,0,74.1,28.6,82.1,66.6H538C528.5,127.9,435.8,41.2,322.8,41.2
			s-205.6,86.7-215.1,197.2h131.7C247.4,200.4,281.1,171.9,321.5,171.9z"/>
		<path id="Shadow_Up" class="st3" d="M482.1,238.4h55.8c-8.2-95.5-78.6-173.3-170.5-192.6C431.2,79.5,476.7,152.4,482.1,238.4z"/>
	</g>
	<path id="Line" d="M322.8,41.2c113,0,205.7,86.7,215.1,197.2H403.5c-8-38-41.7-66.6-82.1-66.6s-74.1,28.6-82.1,66.6H107.7
		C117.2,127.9,209.9,41.2,322.8,41.2z M367.7,238.4c2,5.4,3.1,11.2,3.1,17.3l0,0h0.1l0,0c0,6.1-1.1,11.9-3.1,17.3
		c-7,18.8-25.1,32.1-46.3,32.1c-21.2,0-39.3-13.4-46.3-32.1c-2-5.4-3.1-11.2-3.1-17.3l0,0H272l0,0c0-6.1,1.1-11.9,3.1-17.3
		c7-18.8,25.1-32.1,46.3-32.1S360.7,219.7,367.7,238.4z M320,470.3c-113,0-205.7-86.7-215.1-197.2h134.4c8,38,41.7,66.6,82.1,66.6
		s74.1-28.6,82.1-66.6h131.7C525.7,383.5,433,470.3,320,470.3z M321.4,0C180.2,0,65.7,114.5,65.7,255.7s114.5,255.7,255.7,255.7
		S577.2,397,577.2,255.7S462.7,0,321.4,0z"/>
</g>
<polygon points="74.7,23.8 74.7,0 50.8,0 23.8,0 0,0 0,23.8 23.8,23.8 23.8,487.6 0,487.6 0,511.4 23.8,511.4 50.8,511.4 
	74.7,511.4 74.7,487.6 50.8,487.6 50.8,23.8 "/>
</svg>
