<?xml version="1.0" encoding="utf-8"?>
<!-- Generator: Adobe Illustrator 25.0.1, SVG Export Plug-In . SVG Version: 6.00 Build 0)  -->
<svg version="1.1" id="Capa_1" xmlns="http://www.w3.org/2000/svg" xmlns:xlink="http://www.w3.org/1999/xlink" x="0px" y="0px"
	 viewBox="0 0 48 48" style="enable-background:new 0 0 48 48;" xml:space="preserve">
<style type="text/css">
	.st0{fill:#FFFFFF;}
</style>
<g>
	<path class="st0" d="M20,39.8c1.8,0,3.2,1.4,3.2,3.1S21.7,46,20,46c-1.8,0-3.2-1.4-3.2-3.1S18.2,39.8,20,39.8"/>
</g>
<g>
	<path class="st0" d="M36.2,39.8c1.8,0,3.2,1.4,3.2,3.1S38,46,36.2,46c-1.8,0-3.2-1.4-3.2-3.1S34.4,39.8,36.2,39.8"/>
</g>
<g>
	<path class="st0" d="M40.6,35.7H17c-0.5,0-0.9-0.3-1-0.8L8,4.8H1.5c-0.6,0-1-0.5-1-1s0.5-1,1-1h7.3c0.5,0,0.9,0.3,1,0.8l8,30.1
		h22.9c0.6,0,1,0.5,1,1C41.7,35.3,41.2,35.7,40.6,35.7z"/>
</g>
<g>
	<path class="st0" d="M41.8,25.6H14.3v-2.1H41L44.2,9H9.9V6.9h35.7c0.3,0,0.6,0.1,0.8,0.4c0.2,0.2,0.3,0.6,0.2,0.9l-3.7,16.6
		C42.7,25.3,42.3,25.6,41.8,25.6z"/>
</g>
</svg>
