<?xml version="1.0" encoding="utf-8"?>
<!-- Generator: Adobe Illustrator 16.0.0, SVG Export Plug-In . SVG Version: 6.00 Build 0)  -->
<!DOCTYPE svg PUBLIC "-//W3C//DTD SVG 1.0//EN" "http://www.w3.org/TR/2001/REC-SVG-20010904/DTD/svg10.dtd">
<svg version="1.0" id="Capa_1" xmlns="http://www.w3.org/2000/svg" xmlns:xlink="http://www.w3.org/1999/xlink" x="0px" y="0px"
	 width="48px" height="48px" viewBox="0 0 48 48" enable-background="new 0 0 48 48" xml:space="preserve">
<g>
	<path d="M19.965,39.781c1.779,0,3.219,1.394,3.219,3.109s-1.44,3.107-3.219,3.107c-1.78,0-3.22-1.392-3.22-3.107
		S18.185,39.781,19.965,39.781"/>
</g>
<g>
	<path d="M36.209,39.781c1.782,0,3.221,1.394,3.221,3.109s-1.438,3.107-3.221,3.107c-1.774,0-3.219-1.392-3.219-3.107
		S34.435,39.781,36.209,39.781"/>
</g>
<g>
	<path d="M40.644,35.719H16.987c-0.467,0-0.875-0.314-0.995-0.765L7.953,4.819H1.493c-0.569,0-1.03-0.46-1.03-1.03
		c0-0.57,0.461-1.03,1.03-1.03h7.251c0.467,0,0.875,0.314,0.995,0.765l8.039,30.135h22.866c0.568,0,1.029,0.461,1.029,1.029
		C41.673,35.258,41.212,35.719,40.644,35.719z"/>
</g>
<g>
	<path d="M41.843,25.592H14.26v-2.06h26.756l3.232-14.524H9.859V6.947h35.673c0.311,0,0.606,0.143,0.803,0.386
		c0.196,0.245,0.271,0.563,0.203,0.868l-3.689,16.585C42.743,25.257,42.325,25.592,41.843,25.592z"/>
</g>
</svg>
