<?xml version="1.0" encoding="UTF-8"?>
<svg width="26px" height="26px" viewBox="0 0 26 26" version="1.1" xmlns="http://www.w3.org/2000/svg" xmlns:xlink="http://www.w3.org/1999/xlink">
    <!-- Generator: Sketch 52.6 (67491) - http://www.bohemiancoding.com/sketch -->
    <title>cookies</title>
    <desc>Created with Sketch.</desc>
    <g id="Desktop" stroke="none" stroke-width="1" fill="none" fill-rule="evenodd">
        <g id="Home-Actual-cambio-de-diseño" transform="translate(-67.000000, -92.000000)">
            <g id="Política-de-cookies" transform="translate(0.000000, 70.000000)">
                <g id="cookies" transform="translate(80.000000, 35.000000) rotate(-90.000000) translate(-80.000000, -35.000000) translate(67.000000, 22.000000)">
                    <path d="M13.493571,1.00000152 C6.65644342,1.00354084 1.10309603,6.49612572 1.00143968,13.309849 C0.897030522,20.2991603 6.48478767,25.9862096 13.4748914,25.9999734 C15.1131908,26.0033161 16.6781482,25.6910721 18.1127417,25.1210498 C18.256083,25.0642245 18.3260824,24.9012206 18.2680773,24.7582725 C18.0165909,24.1383069 18.0889497,23.406657 18.5069796,22.844893 C18.6863038,22.6040247 18.9082961,22.4174254 19.1536871,22.2856852 C19.2341077,22.2426238 19.2557367,22.1366417 19.1995012,22.0650695 C18.6345908,21.3446273 18.6357705,20.3028962 19.2533772,19.5800946 C19.8711804,18.8568996 20.9007215,18.6935024 21.7006016,19.1398462 C21.7802358,19.1844806 21.8805157,19.1451551 21.9105997,19.0590324 C21.9884641,18.8360571 22.1080136,18.6235031 22.2708211,18.433168 C22.9092702,17.6859845 23.9875748,17.5363512 24.7976797,18.0401101 C24.9451502,18.1317384 25.1409911,18.0637054 25.2021422,17.9010947 C25.7324463,16.492064 26.0163763,14.9621075 25.9992697,13.3637248 C25.925731,6.48924381 20.3684511,0.996658875 13.493571,1.00000152 Z" id="Path" fill="#D3843D"></path>
                    <path d="M2.71139886,13.3098412 C2.80593207,6.78811274 7.75164181,1.47741071 13.9982812,1.03106711 C13.7129628,1.0108145 13.4249708,1 13.134496,1 C6.49387281,1.00353931 1.10013297,6.49612142 1.0013983,13.3098412 C0.899989945,20.299149 6.32715058,25.9861954 13.1163533,25.9999593 C13.4135122,26.0007458 13.7081884,25.9901279 14,25.9690888 C7.60229847,25.5174363 2.614192,20.0128599 2.71139886,13.3098412 Z" id="Path" fill="#C16A33"></path>
                    <path d="M24,22 C24,22.5522902 23.5522902,23 23,23 C22.4477098,23 22,22.5522902 22,22 C22,21.4477098 22.4477098,21 23,21 C23.5522902,21 24,21.4477098 24,22 Z" id="Path" fill="#D3843D"></path>
                    <path d="M16,5.9998891 C16,7.10450737 15.1045074,8 13.9998891,8 C12.8954926,8 12,7.10450737 12,5.9998891 C12,4.89549257 12.8954926,4 13.9998891,4 C15.1045074,4 16,4.89549257 16,5.9998891 Z" id="Path" fill="#AF5028"></path>
                    <path d="M13.990515,5.9998891 C13.990515,5.25697173 14.39711,4.60897042 15,4.2641237 C14.7067803,4.09646833 14.367099,4 14.0047425,4 C12.8976658,4 12,4.89549257 12,5.9998891 C12,7.10450737 12.8976658,8 14.0047425,8 C14.367099,8 14.7067803,7.90353161 15,7.73565449 C14.39711,7.39102952 13.990515,6.74302822 13.990515,5.9998891 Z" id="Path" fill="#A63F24"></path>
                    <path d="M11,20 C11,20.5522902 10.552133,21 9.99989865,21 C9.44766439,21 9,20.5522902 9,20 C9,19.4477098 9.44766439,19 9.99989865,19 C10.552133,19 11,19.4477098 11,20 Z" id="Path" fill="#A63F24"></path>
                    <path d="M12.9972056,11.3068771 C12.9562497,10.6213115 12.4455924,10.0604847 11.8105915,10.00478 C11.2145171,9.95245744 10.6946356,10.3350293 10.4933613,10.8898877 C10.4103426,11.1190727 10.2133115,11.274449 9.98620924,11.2965319 C9.98012121,11.2971287 9.97403319,11.2977256 9.96794511,11.2983224 C8.83778378,11.4180875 7.99394471,12.4319128 8.00003273,13.6562222 C8.00667428,14.9941294 9.0469909,16.0682351 10.3037097,15.9966148 C11.6294262,15.9212145 12.6177178,14.566397 12.3175591,13.1264308 C12.2673789,12.8853091 12.3474458,12.6386169 12.5247369,12.481848 C12.8352268,12.2073035 13.0256164,11.7803669 12.9972056,11.3068771 Z" id="Path" fill="#AF5028"></path>
                    <path d="M9.82416835,13.6562973 C9.81744552,12.4318189 10.7494764,11.4180184 11.9972774,11.2982563 C12.0042039,11.2976595 12.0109267,11.2970626 12.0176496,11.2964659 C12.2684321,11.2745824 12.4858041,11.119011 12.5776831,10.8900305 C12.6669136,10.6668193 12.8140013,10.4722556 13,10.3218567 C12.7805908,10.1442029 12.5067876,10.0286184 12.2081302,10.0047456 C11.5496988,9.95262321 10.9756085,10.3351857 10.7533471,10.8900305 C10.661672,11.119011 10.4443,11.2745824 10.1933137,11.2964659 C10.1865909,11.2970626 10.179868,11.2976595 10.1731452,11.2982563 C8.92534423,11.4180184 7.9933133,12.4318189 8.00003614,13.6562973 C8.0073702,14.9941717 9.15636569,16.0680522 10.5439203,15.9966326 C10.8179272,15.9825078 11.0805257,15.9222289 11.3241779,15.8245491 C10.4481707,15.4744139 9.82966888,14.6364768 9.82416835,13.6562973 Z" id="Path" fill="#A63F24"></path>
                    <path d="M2,7.66755885 C2.40410368,8.2061686 2.9765839,8.62646084 3.67037394,8.84504416 C5.4713136,9.4123013 7.40025879,8.37314745 7.89061849,6.5277468 C8.24568621,5.1921123 7.71338004,3.78760643 6.62631752,3 C4.69835703,4.11665872 3.09730296,5.73150692 2,7.66755885 Z" id="Path" fill="#AF5028"></path>
                    <path d="M3.1721436,8 C4.01918456,5.88876609 5.34713344,4.07288931 7,2.72792594 C6.8159169,2.45267376 6.59505419,2.20623188 6.34221716,2 C4.52910953,3.18142877 3.02724285,4.89014785 2,6.93028881 C2.29922745,7.37943902 2.69751971,7.75003457 3.1721436,8 Z" id="Path" fill="#A63F24"></path>
                    <path d="M21.3845848,4 C21.1810162,4.11546059 20.9931067,4.26988158 20.8315414,4.46305996 C20.1985444,5.2197429 20.1349868,6.30028371 20.5745476,7.11824805 C20.7561934,7.45590437 20.7440346,7.87553976 20.5507825,8.20507934 C20.54544,8.21380485 20.5402817,8.22273326 20.5353076,8.23166167 C19.5848909,9.88098295 19.9299444,12.020961 21.3330018,13.2155421 C22.419008,14.1402415 23.8524626,14.2307431 24.9970524,13.5751136 C24.9985262,13.4904966 25,13.4058795 25,13.3208568 C24.9998158,9.65594633 23.6122332,6.34837542 21.3845848,4 Z" id="Path" fill="#AF5028"></path>
                    <path d="M23.5151309,13.2158416 C21.8615612,12.0212217 21.4548995,9.8811741 22.5750105,8.23179922 C22.5810898,8.22287051 22.5871691,8.21394181 22.5932484,8.20521602 C22.8210051,7.87566572 22.8353348,7.4560167 22.6214737,7.1183494 C22.2017849,6.45620492 22.1713884,5.62197999 22.5706682,4.92655585 C22.2740852,4.60349915 21.960567,4.29424136 21.6316334,4 C21.3919352,4.11546435 21.1704751,4.26989036 20.9800627,4.46307501 C20.2340457,5.21978255 20.1589229,6.30035847 20.6771833,7.1183494 C20.8910444,7.4560167 20.8769317,7.87566572 20.6489579,8.20521602 C20.6428786,8.21394181 20.6367993,8.22287051 20.63072,8.23179922 C19.510826,9.8811741 19.9174878,12.0212217 21.5710575,13.2158416 C22.5817412,13.9461689 23.8479726,14.1557905 25,13.8887411 C24.4758775,13.7667831 23.9697757,13.5441743 23.5151309,13.2158416 Z" id="Path" fill="#A63F24"></path>
                    <path d="M9.5,18 C8.67284399,18 8,18.672844 8,19.5 C8,20.327156 8.67306291,21 9.5,21 C10.3269371,21 11,20.327156 11,19.5 C11,18.672844 10.3269371,18 9.5,18 Z M9.5,20.1601488 C9.13599887,20.1601488 8.84007008,19.8640012 8.84007008,19.5 C8.84007008,19.1362177 9.13599887,18.8400701 9.5,18.8400701 C9.86400118,18.8400701 10.15993,19.1362177 10.15993,19.5 C10.15993,19.8640012 9.86400118,20.1601488 9.5,20.1601488 Z" id="Shape" fill="#000000" fill-rule="nonzero"></path>
                    <path d="M22.5,20 C21.672844,20 21,20.672844 21,21.5 C21,22.327156 21.672844,23 22.5,23 C23.3269371,23 24,22.327156 24,21.5 C24,20.672844 23.3269371,20 22.5,20 Z M22.5,22.1599299 C22.1359989,22.1599299 21.8398512,21.8640011 21.8398512,21.5 C21.8398512,21.1359989 22.1359989,20.8400701 22.5,20.8400701 C22.8637823,20.8400701 23.15993,21.1359989 23.15993,21.5 C23.15993,21.8640011 22.8637823,22.1599299 22.5,22.1599299 Z" id="Shape" fill="#000000" fill-rule="nonzero"></path>
                    <path d="M13.2725637,12.5442067 C13.250654,12.440639 13.2843911,12.3376889 13.3631108,12.2693301 C14.5766747,11.212445 13.9443961,9.1390314 12.4068404,9.00622587 C11.6347663,8.93992602 10.927258,9.4081428 10.6457283,10.1722379 C10.6102463,10.2692169 10.5338532,10.33284 10.4035584,10.3456058 C8.10245987,10.5856852 7.19408048,13.5811194 8.83750071,15.2277023 C9.35712862,15.7482177 10.0524218,16.0383308 10.8126684,15.9959154 C12.4140143,15.906143 13.64212,14.2912687 13.2725637,12.5442067 Z M9.34801573,14.6528293 C8.16547443,13.4678744 8.81423379,11.305306 10.4762676,11.1319381 C10.9005011,11.0901404 11.2064611,10.8193818 11.3388887,10.4600862 C11.7284157,9.40217166 13.1853128,9.66448837 13.2525929,10.7730543 C13.2735332,11.1175251 13.1418812,11.4401705 12.891374,11.6582187 C12.5951085,11.9162115 12.4628748,12.3220405 12.5466358,12.7173687 C12.9605931,14.6746547 10.7240602,16.0315362 9.34801573,14.6528293 Z" id="Shape" fill="#000000" fill-rule="nonzero"></path>
                    <path d="M12.0768903,25.9986089 C12.2865611,26.0127192 12.4682625,25.8545244 12.4827431,25.6442603 C12.4972236,25.4341951 12.3389292,25.2521518 12.1292584,25.2376439 C3.38517473,24.6338801 -1.86373518,15.237384 2.08985781,7.48682984 C3.19910932,8.56438326 4.97208676,8.91873175 6.49512561,8.07966308 C8.67058366,6.88068124 9.08575951,3.93261279 7.33817261,2.1652424 C9.0316061,1.27152098 10.9539517,0.763747281 12.9848024,0.762753607 L12.9909516,0.762753607 C16.0824547,0.762753607 18.9188616,1.93033494 21.0802358,3.84775197 C20.1334443,4.6315717 19.8450231,6.01160319 20.5091458,7.13506493 C20.6263789,7.33340468 20.6331233,7.57646036 20.4728452,7.8268693 C19.3453442,9.60656137 19.7527838,11.9224466 21.42043,13.2142388 C22.4981416,14.0489353 23.9214034,14.2756944 25.1923216,13.8499992 C25.1149596,15.0034703 24.8777163,16.1320991 24.4819801,17.2172045 C23.3269065,16.5812453 21.8096202,17.0246281 21.21552,18.2685246 C20.2814239,17.8752236 19.1771315,18.1262288 18.5060661,18.9130296 C17.8350007,19.6996316 17.7596223,20.831639 18.2930231,21.6947549 C17.3874915,22.3187899 17.0633647,23.4607341 17.4126837,24.4426949 C16.2742726,24.8852828 15.0771459,25.1527831 13.8528433,25.2382401 C13.6429741,25.2529467 13.484878,25.43499 13.499557,25.6450553 C13.5134424,25.8461774 13.6806633,26 13.878829,26 C13.8877553,26 13.8966817,25.9996026 13.9056081,25.9990063 C15.2411929,25.9057986 16.5464281,25.6086864 17.7850129,25.1156192 C18.1260006,24.9798817 18.2922297,24.5923441 18.15397,24.2509134 C17.8524567,23.5064437 18.1386959,22.6270314 18.8748247,22.2313455 C19.1638411,22.0759329 19.2429883,21.6959473 19.0404587,21.4369926 C18.5729148,20.8395885 18.591561,19.9866082 19.0846938,19.4084815 C19.5780251,18.8299574 20.4167081,18.6787183 21.0786489,19.0487671 C21.3650864,19.2089493 21.726704,19.0708269 21.8354075,18.7598031 C22.176792,17.7804259 23.3405936,17.4002415 24.1876079,17.9280877 C24.5395056,18.1472949 25.0062561,17.9883051 25.1528471,17.5981839 C28.3592029,9.06301502 22.0647163,0 12.99115,0 C12.9891664,0 12.9865876,0 12.9844056,0 C5.87880864,0.00357724514 0.107209569,5.72383165 0.00148155697,12.8173605 C-0.101667715,19.7564704 5.19346099,25.5232294 12.0768903,25.9986089 Z M21.8859903,12.6106738 C20.5313626,11.5615398 20.1998963,9.68049168 21.1149494,8.23646677 C21.4406632,7.72710317 21.4184464,7.17699845 21.1641437,6.74633481 C20.6811273,5.92912722 20.915792,4.91278493 21.6408124,4.37679056 C23.9106917,6.65710179 25.2200925,9.73057342 25.2200925,13.0232522 C24.1247265,13.5016128 22.8387327,13.3485852 21.8859903,12.6106738 Z M6.12815218,7.41130969 C4.85346511,8.11384589 3.35105612,7.76844052 2.47508068,6.78806966 C3.50141606,5.06283156 4.93856326,3.60747864 6.64647731,2.55933839 C8.18915421,3.91214284 7.94595992,6.40967392 6.12815218,7.41130969 Z" id="Shape" fill="#000000" fill-rule="nonzero"></path>
                    <path d="M14.1152465,3.70165492 C14.6056711,3.70165492 15.0624468,3.95236353 15.3068856,4.3557648 C15.4087995,4.52381821 15.6354469,4.58196946 15.8133612,4.48559933 C15.9912755,4.3892292 16.052772,4.17472798 15.9506647,4.00667457 C15.5743372,3.38566333 14.8709955,3 14.1150531,3 C12.9489408,3 12,3.89713817 12,4.99999998 C12,6.10267897 12.9489408,7 14.1150531,7 C14.8708021,7 15.5741438,6.61415377 15.9506647,5.99314253 C16.052772,5.82508912 15.9910821,5.6105879 15.8133612,5.51421777 C15.6356403,5.41784764 15.4087995,5.47599889 15.3068856,5.64423515 C15.0624468,6.04763647 14.6056711,6.29816218 14.1152465,6.29816218 C13.3581437,6.29816218 12.7422121,5.71573557 12.7422121,4.99999998 C12.7422121,4.28408153 13.3581437,3.70165492 14.1152465,3.70165492 Z" id="Path" fill="#000000"></path>
                </g>
            </g>
        </g>
    </g>
</svg>