<?xml version="1.0" encoding="utf-8"?>
<!-- Generator: Adobe Illustrator 25.0.1, SVG Export Plug-In . SVG Version: 6.00 Build 0)  -->
<svg version="1.1" id="Capa_1" xmlns="http://www.w3.org/2000/svg" xmlns:xlink="http://www.w3.org/1999/xlink" x="0px" y="0px"
	 viewBox="0 0 21 21" style="enable-background:new 0 0 21 21;" xml:space="preserve">
<style type="text/css">
	.st0{fill-rule:evenodd;clip-rule:evenodd;fill:#00985F;}
</style>
<desc>Created with Sketch.</desc>
<g id="Iconos_x2F_Corazón">
	<g id="Mask">
		<path id="path-1_1_" class="st0" d="M10.7,2.7c0.6-1.1,1.6-1.9,2.7-2.4c2.1-0.8,4.4-0.2,6,1.6c2,2.3,2.1,5.9,0.3,8.7
			c-1.7,2.6-6,7.1-8.9,9.3l-0.3,0.2l-0.3-0.2c-2.9-2.2-7.2-6.6-8.9-9.3c-1.8-2.8-1.7-6.3,0.3-8.7c1.6-1.8,3.9-2.4,6-1.6
			c1.1,0.4,2,1.3,2.7,2.4l0.2,0.4L10.7,2.7z"/>
	</g>
</g>
</svg>
