<?xml version="1.0" encoding="UTF-8"?>
<svg width="21px" height="21px" viewBox="0 0 21 21" version="1.1" xmlns="http://www.w3.org/2000/svg" xmlns:xlink="http://www.w3.org/1999/xlink">
    <!-- Generator: Sketch 52.5 (67469) - http://www.bohemiancoding.com/sketch -->
    <title>Iconos/Corazón-verde</title>
    <desc>Created with Sketch.</desc>
    <defs>
        <path d="M10.7441064,2.72671489 C11.3935348,1.62641087 12.3321087,0.783908967 13.4356388,0.354940611 C15.5116595,-0.450949753 17.8322701,0.135084899 19.3993759,1.91352383 C21.4312374,4.2196854 21.5134397,7.81579533 19.7326104,10.5679053 C18.0251247,13.2031524 13.7146327,17.6836452 10.8138975,19.8455164 L10.5001894,20.079318 L10.1864814,19.8455164 C7.28345946,17.6819409 2.97197864,13.2010691 1.26759486,10.5676371 C-0.513394105,7.81528017 -0.431493092,4.21927089 1.60100297,1.91352383 C3.16819057,0.134992116 5.48783927,-0.450873689 7.56512042,0.355088438 C8.66793497,0.784176742 9.60725168,1.6271014 10.2564363,2.72699262 L10.5001895,3.1405553 L10.7441064,2.72671489 Z M13.8158159,1.33362606 C12.9421922,1.67322438 12.1826811,2.35499227 11.6484559,3.26011133 L10.5001894,5.20831212 L10.0479328,4.44099303 L9.3520868,3.26038907 C8.81809496,2.35566517 8.05779629,1.67338784 7.1848755,1.33374744 C5.52168312,0.688447381 3.66716409,1.15683696 2.38868216,2.60772939 C0.682753954,4.54300447 0.612610579,7.62277377 2.14905328,9.99720667 C3.7229007,12.4289478 7.70157992,16.5930839 10.5001838,18.7649265 C13.2967355,16.5945303 17.2745368,12.4307427 18.851299,9.99724779 C20.3874419,7.62327821 20.3170413,4.54330725 18.6116229,2.60764564 C17.3333148,1.15695979 15.4779243,0.688412354 13.8158159,1.33362606 Z" id="path-1"></path>
    </defs>
    <g id="Iconos/Corazón" stroke="none" stroke-width="1" fill="none" fill-rule="evenodd">
        <mask id="mask-2" fill="white">
            <use xlink:href="#path-1"></use>
        </mask>
        <use id="Mask" fill="#00985F" xlink:href="#path-1"></use>
    </g>
</svg>