<?xml version="1.0" encoding="utf-8"?>
<!-- Generator: Adobe Illustrator 25.0.1, SVG Export Plug-In . SVG Version: 6.00 Build 0)  -->
<svg version="1.1" id="Capa_2" xmlns="http://www.w3.org/2000/svg" xmlns:xlink="http://www.w3.org/1999/xlink" x="0px" y="0px"
	 viewBox="0 0 333.7 213.8" style="enable-background:new 0 0 333.7 213.8;" xml:space="preserve">
<g>
	<g>
		<g>
			<path d="M55.6,163.1c-5,0-10-0.1-13.5-3.7c-2.5-2.5-3.7-6.5-3.7-11.9c0.7-43,0.4-86.7,0.1-129c-0.1-5.4,1.1-9.3,3.6-11.8
				C45.5,3.4,50.5,3,54.1,3c74.3,0.1,149.7,0.1,224,0c4.5,0,9.4,0.4,12.6,3.8c2.2,2.4,3,5.7,2.8,10.2c-0.1,1.9-1.7,3.2-3.6,3
				c-1.9-0.1-3.2-1.7-3-3.6c0.1-2.5-0.1-4.2-1.1-5.2c-1.1-1.2-3.4-1.7-7.7-1.7c-74.3,0.1-149.7,0.1-224,0c-3.7,0-6.1,0.5-7.1,1.7
				c-1.2,1.2-1.7,3.4-1.7,7c0.3,42.3,0.5,86-0.1,129.1c0,3.4,0.5,5.9,1.7,7.1c1.7,1.7,5.4,1.7,9.6,1.7h1.1c35.5-0.1,71.9,0,106.9,0
				c17.8,0,35.7,0,53.4,0c1.9,0,3.3,1.5,3.3,3.3s-1.5,3.3-3.3,3.3c-17.8,0-35.5,0-53.4,0c-35,0-71.2,0-106.9,0h-1.1
				C56.2,163.1,55.9,163.1,55.6,163.1z"/>
			<path d="M55.6,165.7c-4.9,0-11,0-15.4-4.5c-3-3-4.4-7.5-4.4-13.7c0.7-43.4,0.4-88.9,0.1-129c-0.1-6.1,1.3-10.6,4.3-13.6
				c4-4,9.8-4.5,13.8-4.5c74.3,0.1,149.7,0.1,224,0c5.3,0,10.7,0.6,14.5,4.7c2.7,2.8,3.8,6.7,3.5,12.1c-0.2,3.3-3,5.8-6.4,5.5
				c-1.6-0.1-3.1-0.8-4.1-2.1c-1-1.2-1.5-2.7-1.4-4.3c0.1-2.5-0.3-3.1-0.3-3.1l-0.1-0.1c-0.1-0.1-0.9-0.8-5.7-0.8
				c-74.3,0.1-149.7,0.1-224,0c-4.4,0-5.1,0.8-5.2,0.8l-0.1,0.1c-0.3,0.3-0.9,1.4-0.9,5.1c0.3,40.1,0.5,85.6-0.1,129.2
				c0,4.2,0.8,5.1,0.9,5.2c0.9,0.9,4.7,0.9,7.8,0.9h1.1c23.8-0.1,48.2-0.1,71.7,0c11.8,0,23.6,0,35.2,0h53.4c3.3,0,5.9,2.6,5.9,5.9
				s-2.6,5.9-5.9,5.9H56.9C56.4,165.7,55.9,165.7,55.6,165.7z M54.1,5.7c-3,0-7.4,0.3-10,2.9c-2,2-2.9,5.2-2.8,9.8
				c0.3,40.2,0.5,85.7-0.1,129.1c0,4.7,1,8,2.9,10c2.6,2.7,6.6,2.9,11.5,2.9l0.3-0.1h162c0.4,0,0.7-0.3,0.7-0.7s-0.3-0.7-0.7-0.7
				h-53.4c-11.6,0-23.4,0-35.2,0c-23.6,0-48-0.1-71.7,0h-1.1c-4.8,0-9,0-11.5-2.5c-1.7-1.7-2.5-4.6-2.5-9c0.7-43.5,0.4-89,0.1-129.1
				c0-4.4,0.8-7.1,2.4-8.8C46.6,7.8,49.4,7,54.1,7c74.3,0.1,149.7,0.1,224,0c5.2,0,7.9,0.7,9.6,2.5c1.8,1.9,1.9,4.8,1.8,7.1
				c0,0.3,0,0.4,0.2,0.6c0.1,0.1,0.3,0.2,0.4,0.2c0.3,0,0.7-0.2,0.7-0.6c0.2-3.8-0.4-6.4-2.1-8.2c-2.4-2.6-6.6-3-10.6-3
				C203.7,5.8,128.4,5.8,54.1,5.7z"/>
		</g>
	</g>
	<g>
		<g>
			<path d="M214.2,188.8H10.8c-1.9,0-3.3-1.5-3.3-3.3c0-1.9,1.5-3.3,3.3-3.3h203.4c1.9,0,3.3,1.5,3.3,3.3
				C217.5,187.4,216.1,188.8,214.2,188.8z"/>
			<path d="M214.2,191.5H10.8c-3.3,0-5.9-2.6-5.9-5.9c0-3.3,2.6-5.9,5.9-5.9h203.4c3.3,0,5.9,2.6,5.9,5.9
				C220.2,188.9,217.6,191.5,214.2,191.5z M10.8,184.9c-0.4,0-0.7,0.3-0.7,0.7c0,0.4,0.3,0.7,0.7,0.7h203.4c0.4,0,0.7-0.3,0.7-0.7
				c0-0.4-0.3-0.7-0.7-0.7H10.8z"/>
		</g>
	</g>
	<g>
		<g>
			<path d="M284.3,211.2c-9.3,0-18.9,0-28.9-0.1c-4.1-0.1-11.6-1.3-15.7-7c-2.6-3.6-2.8-7.4-2.9-15.2c0-4.2,0-8.1-0.1-11.4
				c0-2.8,0-5.3,0-7.4c-0.3-39.3-0.7-79.2-1.2-118.7c0-0.4,0-0.8,0.1-1.1c1.2-3.4,3.2-6.3,6.1-8.5c4.2-3.3,8.9-3.6,10.2-3.6
				c3.4-0.1,32.6-0.7,60.4-0.5l0,0c2.8,0,9.4,0,14,4.6c3.2,3.2,4.8,7.8,4.8,14.1v18.8c-0.1,37.3-0.3,75.7,0.1,113.7
				c0,8.1-1.7,13.5-5.6,17c-5,5.2-12.2,5.2-15.2,5.2C302.2,211.2,293.5,211.2,284.3,211.2z M242.1,51.8c0.5,39.3,0.9,79,1.2,118.1
				l0,0c0,2.1,0,4.6,0,7.4c0,3.4,0.1,7.3,0.1,11.4c0.1,7.7,0.3,9.6,1.6,11.4c2.5,3.6,7.7,4.2,10.6,4.4c19.8,0.3,38.3,0.3,55,0
				c2.5,0,7.5,0,10.6-3.2c2.4-2.4,3.6-6.3,3.6-12.4c-0.4-37.9-0.3-76.4-0.1-113.7V56.4c0-4.5-0.9-7.4-2.9-9.4
				c-2.8-2.8-7.1-2.8-9.4-2.8c-28.4-0.1-57.9,0.4-60.1,0.5H252c-0.5,0-3.6,0.1-6.3,2.2C244.1,48.2,242.9,49.9,242.1,51.8z"/>
			<path d="M310.3,213.8h-26c-9.3,0-18.9,0-29-0.1c-3.7-0.1-12.8-1.1-17.8-8.1c-3.2-4.3-3.3-9-3.4-16.7c0-4.2,0-8.1-0.1-11.3l0-7.5
				c-0.3-39.8-0.7-79.7-1.2-118.6c0-0.6,0-1.3,0.3-2.1c1.4-4,3.8-7.3,7-9.6c4.8-3.8,10.2-4.1,11.7-4.1c3.5-0.1,32.7-0.7,60.4-0.5
				c0,0,0,0,0,0c2.9,0,10.5,0,15.8,5.4c3.7,3.7,5.5,9,5.5,16v18.8c-0.1,37.1-0.3,75.4,0.1,113.6c0,8.9-2,15-6.4,19
				C321.6,213.8,313.7,213.8,310.3,213.8z M238,51.2c0,0.1,0,0.2,0,0.2c0.5,38.9,0.9,78.8,1.2,118.7v7.4c0.1,3.3,0.1,7.2,0.1,11.4
				c0.1,7.6,0.3,10.8,2.4,13.6c3.7,5.1,10.8,5.8,13.7,5.9c10,0.1,19.6,0.1,28.9,0.1h26c2.9,0,9.1,0,13.3-4.4
				c3.3-3.1,4.8-7.9,4.8-15.2c-0.4-38.2-0.3-76.6-0.1-113.7V56.5c0-5.6-1.3-9.6-4-12.3c-3.9-3.9-9.7-3.9-12.1-3.9
				c-27.6-0.1-56.7,0.4-60.3,0.5c-0.9,0-5,0.1-8.6,3C240.8,45.7,239.1,48.1,238,51.2z M284.3,207.3c-9.2,0-18.8-0.1-28.7-0.2
				c-6-0.3-10.4-2.2-12.7-5.5c-1.8-2.3-1.9-4.8-2.1-12.8c0-2.2,0-4.2-0.1-6.2c0-1.8-0.1-3.6-0.1-5.2v-7.4
				c-0.3-39.7-0.7-79.5-1.2-118.1l0-0.6l0.2-0.5c1-2.4,2.6-4.4,4.4-5.8c3.5-2.6,7.2-2.8,7.9-2.8c2.2-0.1,31.9-0.7,60.3-0.5
				c0,0,0,0,0,0c2.5,0,7.7,0,11.2,3.5c2.5,2.5,3.7,6.1,3.7,11.3v18.8c-0.1,37.1-0.3,75.5,0.1,113.6c0,6.8-1.4,11.4-4.3,14.3
				c-3.8,3.9-9.6,3.9-12.4,3.9C302.3,207.2,293.5,207.3,284.3,207.3z M244.8,52.3c0.5,38.5,0.9,78,1.2,117.6v7.4
				c0,1.6,0,3.3,0.1,5.1c0,2,0.1,4.1,0.1,6.2c0.1,6.9,0.3,8.7,1,9.8c1.8,2.5,5.7,3.2,8.6,3.3c19.7,0.3,38.2,0.3,54.8,0
				c2.3,0,6.4,0,8.7-2.4c1.9-1.9,2.8-5.4,2.8-10.6c-0.4-38.1-0.3-76.5-0.1-113.7V56.4c0-4.8-1.1-6.5-2.1-7.5c-2-2-5.6-2-7.5-2
				c-28.3-0.1-57.8,0.4-60,0.5l-0.2,0c-0.2,0-2.7,0-4.9,1.7C246.3,49.9,245.4,51,244.8,52.3z"/>
		</g>
	</g>
	<g>
		<g>
			<path d="M325.8,171.5H243c-1.9,0-3.3-1.5-3.3-3.3c0-1.9,1.5-3.3,3.3-3.3h82.7c1.9,0,3.3,1.5,3.3,3.3
				C329.1,170.1,327.6,171.5,325.8,171.5z"/>
			<path d="M325.8,174.2H243c-3.3,0-5.9-2.6-5.9-5.9s2.6-5.9,5.9-5.9h82.7c3.3,0,5.9,2.6,5.9,5.9S329.1,174.2,325.8,174.2z
				 M243,167.5c-0.4,0-0.7,0.3-0.7,0.7c0,0.4,0.3,0.7,0.7,0.7h82.7c0.4,0,0.7-0.3,0.7-0.7c0-0.4-0.3-0.7-0.7-0.7H243z"/>
		</g>
	</g>
	<g>
		<g>
			<path d="M324.4,68.4h-82.7c-1.9,0-3.3-1.5-3.3-3.3s1.5-3.3,3.3-3.3h82.7c1.9,0,3.3,1.5,3.3,3.3S326.3,68.4,324.4,68.4z"/>
			<path d="M324.4,71.1h-82.7c-3.3,0-5.9-2.6-5.9-5.9c0-3.3,2.6-5.9,5.9-5.9h82.7c3.3,0,5.9,2.6,5.9,5.9
				C330.4,68.5,327.8,71.1,324.4,71.1z M241.7,64.5c-0.4,0-0.7,0.3-0.7,0.7c0,0.4,0.3,0.7,0.7,0.7h82.7c0.4,0,0.7-0.3,0.7-0.7
				c0-0.4-0.3-0.7-0.7-0.7H241.7z"/>
		</g>
	</g>
</g>
</svg>
