<?xml version="1.0" encoding="utf-8"?>
<!-- Generator: Adobe Illustrator 16.0.0, SVG Export Plug-In . SVG Version: 6.00 Build 0)  -->
<!DOCTYPE svg PUBLIC "-//W3C//DTD SVG 1.0//EN" "http://www.w3.org/TR/2001/REC-SVG-20010904/DTD/svg10.dtd">
<svg version="1.0" id="Capa_1" xmlns="http://www.w3.org/2000/svg" xmlns:xlink="http://www.w3.org/1999/xlink" x="0px" y="0px"
	 width="48px" height="48px" viewBox="0 0 48 48" enable-background="new 0 0 48 48" xml:space="preserve">
<path d="M24,3.025c8.114,0,14.716,6.665,14.716,14.857c0,2.597-0.675,5.151-1.942,7.391C34.615,29.06,27.28,39.144,24,43.606
	c-3.277-4.459-10.608-14.541-12.768-18.325c-1.274-2.241-1.947-4.798-1.947-7.398C9.285,9.69,15.887,3.025,24,3.025 M24.05,24.834
	c3.856,0,6.991-3.138,6.991-6.993s-3.135-6.991-6.991-6.991c-3.856,0-6.992,3.136-6.992,6.991S20.194,24.834,24.05,24.834 M24,1.028
	c-9.229,0-16.714,7.545-16.714,16.854c0,3.053,0.806,5.916,2.21,8.386C12.384,31.329,24,46.972,24,46.972
	S35.626,31.325,38.507,26.26c1.403-2.468,2.207-5.328,2.207-8.377C40.714,8.573,33.232,1.028,24,1.028 M24.05,22.836
	c-2.759,0-4.995-2.235-4.995-4.995c0-2.756,2.236-4.994,4.995-4.994c2.758,0,4.993,2.238,4.993,4.994
	C29.043,20.601,26.808,22.836,24.05,22.836"/>
</svg>
