<?xml version="1.0" encoding="utf-8"?>
<!-- Generator: Adobe Illustrator 25.0.1, SVG Export Plug-In . SVG Version: 6.00 Build 0)  -->
<svg version="1.1" id="Pokéball" xmlns="http://www.w3.org/2000/svg" xmlns:xlink="http://www.w3.org/1999/xlink" x="0px" y="0px"
	 viewBox="0 0 553.4 511.4" style="enable-background:new 0 0 553.4 511.4;" xml:space="preserve">
<style type="text/css">
	.st0{fill:#FFFFFF;}
	.st1{fill:#DFDFDF;}
	.st2{fill:#FF1C1C;}
	.st3{fill:#DF1818;}
</style>
<g id="Pokéball_1_">
	<g id="Colours">
		<path id="Down" class="st0" d="M297.6,339.6c-40.4,0-74.1-28.6-82.1-66.6H81.1c9.5,110.5,102.2,197.2,215.1,197.2
			S501.9,383.5,511.3,273H379.7C371.7,311.1,338,339.6,297.6,339.6z"/>
		<path id="Shadow_Down" class="st1" d="M345.6,464.6c89.6-21,157.7-97.7,165.7-191.6h-53C453,358.2,408.3,430.4,345.6,464.6z"/>
		<path id="Center" class="st0" d="M347.1,255.7L347.1,255.7C347,255.7,347,255.7,347.1,255.7c-0.1-6.1-1.2-11.9-3.2-17.3
			c-7-18.8-25.1-32.1-46.3-32.1s-39.3,13.4-46.3,32.1c-2,5.4-3.1,11.2-3.1,17.3l0,0h0.1l0,0c0,6.1,1.1,11.9,3.1,17.3
			c7,18.8,25.1,32.1,46.3,32.1S337,291.7,344,273C346,267.7,347.1,261.8,347.1,255.7L347.1,255.7z"/>
		<path id="Up" class="st2" d="M297.7,171.9c40.4,0,74.1,28.6,82.1,66.6h134.4C504.7,127.9,412,41.2,299,41.2S93.4,127.9,83.9,238.4
			h131.7C223.6,200.4,257.3,171.9,297.7,171.9z"/>
		<path id="Shadow_Up" class="st3" d="M458.3,238.4h55.8c-8.2-95.5-78.6-173.3-170.5-192.6C407.4,79.5,452.9,152.4,458.3,238.4z"/>
	</g>
	<path id="Line" d="M299,41.2c113,0,205.7,86.7,215.1,197.2H379.7c-8-38-41.7-66.6-82.1-66.6s-74.1,28.6-82.1,66.6H83.9
		C93.4,127.9,186.1,41.2,299,41.2z M343.9,238.4c2,5.4,3.1,11.2,3.1,17.3l0,0h0.1l0,0c0,6.1-1.1,11.9-3.1,17.3
		c-7,18.8-25.1,32.1-46.3,32.1c-21.2,0-39.3-13.4-46.3-32.1c-2-5.4-3.1-11.2-3.1-17.3l0,0h-0.1l0,0c0-6.1,1.1-11.9,3.1-17.3
		c7-18.8,25.1-32.1,46.3-32.1S336.9,219.7,343.9,238.4z M296.2,470.3c-113,0-205.7-86.7-215.1-197.2h134.4c8,38,41.7,66.6,82.1,66.6
		s74.1-28.6,82.1-66.6h131.7C501.9,383.5,409.2,470.3,296.2,470.3z M297.6,0C156.4,0,41.9,114.5,41.9,255.7s114.5,255.7,255.7,255.7
		S553.4,397,553.4,255.7S438.9,0,297.6,0z"/>
</g>
<path d="M0,0c57.7,0,115.3,0,173,0C115.3,47.9,57.7,95.9,0,143.8C0,95.9,0,47.9,0,0z"/>
</svg>
