<?xml version="1.0" encoding="UTF-8"?>
<svg width="21px" height="21px" viewBox="0 0 21 21" version="1.1" xmlns="http://www.w3.org/2000/svg" xmlns:xlink="http://www.w3.org/1999/xlink">
    <!-- Generator: Sketch 52.4 (67378) - http://www.bohemiancoding.com/sketch -->
    <title>Iconos/Lupa</title>
    <desc>Created with Sketch.</desc>
    <defs>
        <path d="M8.5,1 C12.6353125,1 16,4.3646875 16,8.5 C16,12.6353125 12.6353125,16 8.5,16 C4.3646875,16 1,12.6353125 1,8.5 C1,4.3646875 4.3646875,1 8.5,1 M14.8446437,14.1572891 L21,20.3126454 L20.3126454,21 L14.1572829,14.8446375 C12.65466,16.1853309 10.6725904,17 8.5,17 C3.80516667,17 0,13.1957778 0,8.5 C0,3.80516667 3.80516667,0 8.5,0 C13.1948333,0 17,3.80516667 17,8.5 C17,10.6728481 16.1852632,12.6548022 14.8446437,14.1572891 Z" id="path-1"></path>
    </defs>
    <g id="Iconos/Lupa" stroke="none" stroke-width="1" fill="none" fill-rule="evenodd">
        <mask id="mask-2" fill="white">
            <use xlink:href="#path-1"></use>
        </mask>
        <use id="Lupa" fill="#333333" xlink:href="#path-1"></use>
    </g>
</svg>