<?xml version="1.0" encoding="utf-8"?>
<!-- Generator: Adobe Illustrator 25.0.1, SVG Export Plug-In . SVG Version: 6.00 Build 0)  -->
<svg version="1.1" id="Capa_3" xmlns="http://www.w3.org/2000/svg" xmlns:xlink="http://www.w3.org/1999/xlink" x="0px" y="0px"
	 viewBox="0 0 256.7 213.8" style="enable-background:new 0 0 256.7 213.8;" xml:space="preserve">
<g>
	<path d="M256.7,89.9c0-6.3,0-12.8,0-19.1c0-12.3-4.4-20.5-13.9-26c-9.8-5.6-19.7-11.6-29.2-17.3c-13.5-8.1-27.4-16.4-41.3-24.1
		c-5.2-3-14.3-3-19.8,0c-12.2,6.4-24.1,13.6-35.7,20.6c-4.2,2.6-8.4,5-12.6,7.6c-4.8,2.9-8.9,5.2-12.6,7.4
		C66.7,53.3,66,54.4,66.3,81.9c0,4.2,0.1,8.9,0,14.5c0,2.1,1.7,4,3.9,4s4-1.7,4-3.9c0-5.6,0-10.4,0-14.6c-0.1-8.6-0.1-14.2,0.7-18.1
		l84.4,49.5c-0.3,1.7-0.5,3.6-0.5,5.7c0.2,21.8,0.2,44.1,0.2,65.5c0,5.8,0,11.7,0,17.5l-82.4-46.1c-1.9-1-4.3-0.4-5.4,1.5
		c-1,1.9-0.4,4.3,1.5,5.4l88.2,49.4c0.1,0.1,0.2,0.1,0.3,0.1c0,0,0.1,0,0.1,0.1c0.2,0.1,0.4,0.2,0.6,0.2h0.1c0.1,0,0.1,0,0.2,0
		c0.7,0.7,1.7,1.1,2.8,1.1c0.6,0,1.2-0.1,1.8-0.4c1-0.5,2.9-1.5,5.1-2.7c33.7-17.2,49.5-27.2,63.3-36.1c4.9-3.1,9.5-6,14.6-9.1
		c4.5-2.8,6.3-9.8,6.3-13.6C256.8,131,256.8,110.1,256.7,89.9z M95.5,45.6c3.7-2.1,7.9-4.5,12.7-7.4c4.2-2.6,8.4-5,12.6-7.6
		c11.4-7,23.3-14.1,35.3-20.4c3.2-1.6,9.4-1.7,12.3-0.1c10.1,5.6,20.1,11.6,30.1,17.5l-82.4,50.2c-0.2,0.1-0.3,0.2-0.4,0.3
		L78.6,56.5C81.8,53.6,87,50.5,95.5,45.6z M123.3,82.6l82.8-50.4c1.1,0.6,2.2,1.3,3.3,1.9c9.6,5.7,19.5,11.7,29.4,17.4
		c2.4,1.3,4.2,2.9,5.7,4.7c-6.4,3.8-12.8,7.6-19.1,11.3c-18.1,10.7-36.8,21.9-55.5,32.2c-3.2,1.7-5.5,3.6-7.3,5.8L123.3,82.6z
		 M248.6,151.4c0,2.9-1.6,6.3-2.6,6.8c-5.2,3.1-9.8,6-14.8,9.2c-13.7,8.7-29.3,18.6-62.7,35.7c-0.6,0.3-1.1,0.6-1.6,0.8
		c0-6.6,0-13.3,0-19.9c0-21.5,0.1-43.8-0.2-65.6c-0.1-6.1,1.4-8.7,7-11.8c18.8-10.4,37.6-21.6,55.7-32.3c6.1-3.7,12.4-7.4,18.6-11
		c0.5,2.1,0.8,4.5,0.8,7.3c0,6.3,0,12.8,0,19.1C248.8,110,248.8,131,248.6,151.4z"/>
	<path d="M16.4,133h74.7c2.1,0,4-1.7,4-4c0-2.1-1.7-4-4-4H16.4l16.5-20.4c1.3-1.7,1.1-4.2-0.6-5.6c-1.7-1.3-4.2-1.1-5.6,0.6
		l-21.6,27c-1.1,1.4-1.1,3.5,0,5l21.7,26.9c0.8,1,1.9,1.5,3.1,1.5c0.9,0,1.7-0.3,2.5-0.9c1.7-1.3,1.9-3.9,0.6-5.6L16.4,133z"/>
</g>
</svg>
