<?xml version="1.0" encoding="utf-8"?>
<!-- Generator: Adobe Illustrator 25.0.1, SVG Export Plug-In . SVG Version: 6.00 Build 0)  -->
<svg version="1.1" xmlns="http://www.w3.org/2000/svg" xmlns:xlink="http://www.w3.org/1999/xlink" x="0px" y="0px"
	 viewBox="0 0 102.3 27.2" style="enable-background:new 0 0 102.3 27.2;" xml:space="preserve">
<style type="text/css">
	.st0{fill:#E0001A;}
</style>
<g id="Capa_1_copia_3">
	<g>
		<path class="st0" d="M9,14.9c0,0-0.1,0-0.1,0c0,0,0,0,0,0.1C8.9,14.9,8.9,14.9,9,14.9z"/>
		<path class="st0" d="M11.3,9.6c0,0.3,0.1,0.5,0.1,0.8c0.1,0,0.1,0,0.2,0c0,0,0.1,0,0.2,0c0.4,0.1,0.4,0.6,0.4,0.8
			c0,0.6-0.1,1-0.1,1.2c0,0.1-0.1,0.2-0.1,0.3c0.6-0.2,1.1-0.3,1.7-0.4c0.4-1,0.8-2.1,1.2-3.2c0.2-0.6,0.5-1.1,0.7-1.7
			c0.1,0.3,0.2,0.6,0.4,0.8c0.1,0.3,0.2,0.7,0.3,1c0.1-0.1,0.2-0.2,0.3-0.2c0.4-0.3,0.9-0.5,1.4-0.6c0.3-0.1,0.8-0.2,1.5-0.2
			c0,0,0.1,0,0.1,0c-0.4-0.8-0.7-1.7-1.1-2.5c-0.2-0.3-0.3-0.6-0.5-1h-4.7c-0.3,0.6-0.5,1.1-0.8,1.7c-0.4,0.8-0.7,1.6-1.1,2.4
			C11.2,9.2,11.3,9.4,11.3,9.6z"/>
		<path class="st0" d="M11.4,18c-0.2,0-0.5,0-0.7,0c-0.2,0-1-0.1-1.8-0.5c-0.3-0.1-0.7-0.4-0.8-0.7c-0.2,0.7-0.5,1.3-0.7,2
			c0,0,0,0,0,0C7,19.9,6.7,21,6.3,22.3h4.2l1.4-4.3C11.7,18,11.5,18,11.4,18z"/>
		<path class="st0" d="M22.2,16.5c-0.2,0.2-0.3,0.4-0.5,0.6c0,0,0,0,0,0.1c-0.2,0.2-0.4,0.4-0.6,0.5c-0.5,0.4-1,0.7-1.5,0.9
			c-0.1,0.1-0.3,0.1-0.4,0.2l1.3,3.6h4.1c-0.7-2.1-1.4-4-2.2-5.9C22.3,16.4,22.3,16.5,22.2,16.5z"/>
	</g>
	<g>
		<path class="st0" d="M49.7,21.5l-5-10.1h-0.8c-1.7,3.4-3.4,6.7-5,10.1c-0.1,0.3-0.3,0.5-0.4,0.8c0.7,0,1.3,0,2,0l3.9-7.8l3.9,7.8
			c0.6,0,1.3,0,1.9,0C49.9,22,49.8,21.8,49.7,21.5z"/>
	</g>
	<g id="W_1_">
		<path class="st0" d="M55.9,22.2c-2.2,0-4.7-0.9-5.7-3.2c-1.2-2.7,0.1-6,3-7.7l1,1.7c-2.2,1.3-2.9,3.7-2.2,5.2
			c0.8,1.7,3.1,2.1,4.2,2c1.5-0.1,3.9-1,4.3-3.1c0.3-1.6-0.6-3.2-2.1-4.1l1-1.7c2.2,1.3,3.5,3.8,3,6.2c-0.6,3-3.5,4.5-6,4.7
			C56.2,22.2,56.1,22.2,55.9,22.2z"/>
	</g>
	<g id="J_1_">
		<path class="st0" d="M74.1,22.3l-10.7-9.4c1.1-0.5,2.2-1,3.3-1.5c1.3,0,2.5,0,3.8,0c-1.3,0.7-2.6,1.3-3.9,2c2.5,2.2,5,4.4,7.5,6.6
			C74.1,20.7,74.1,21.5,74.1,22.3z"/>
	</g>
	<path id="Ö_1_" class="st0" d="M84.3,16.3c-0.7-1.6-1.5-3.2-2.2-4.9l-1.6,0.8l0.6,1.2c-0.3-0.1-0.7-0.1-1-0.1
		c-2.5,0-4.5,2-4.5,4.5s2,4.5,4.5,4.5c2.5,0,4.5-2,4.5-4.5C84.6,17.3,84.5,16.8,84.3,16.3z M80.1,20.5c-1.5,0-2.7-1.2-2.7-2.7
		s1.2-2.7,2.7-2.7c1.5,0,2.7,1.2,2.7,2.7S81.6,20.5,80.1,20.5z"/>
	<g id="E_1_">
		<rect x="86.1" y="11.4" class="st0" width="10" height="2.5"/>
		<rect x="86.1" y="19.8" class="st0" width="10" height="2.5"/>
	</g>
	<path class="st0" d="M35.9,4.9c-3.7-0.1-7.1,1.2-9.4,3.7c-0.8,0.9-1.4,1.8-1.8,2.8c0.8,0.1,2,0.5,2,1.1c0,1-2.3,1-2.4,1
		c0,0-0.1,0-0.1,0c0,0.4-0.1,0.9,0,1.3c0.4,3.8,4.8,7.5,10.5,7.5c0.4,0,0.9,0,1.3-0.1l1.4-0.1V5L35.9,4.9z M34.3,12h-4.6v3.1h4.6
		v4.1c-4.1-0.1-6.9-2.8-7.2-4.8c-0.1-1.1,0.5-2.5,1.6-3.7c1.4-1.5,3.4-2.5,5.6-2.7V12z"/>
</g>
<g id="Capa_3">
	<path class="st0" d="M18,22.3c0.3,0,0.6,0,1,0c-0.5-1.4-1-2.8-1.5-4.2c-0.3,0-0.6,0.1-1,0.1C17,19.6,17.5,20.9,18,22.3z"/>
	<path class="st0" d="M20.4,11.2c-0.2,0-0.4-0.2-0.4-0.4s0.2-0.4,0.4-0.4c0.2,0,0.4,0.2,0.4,0.4S20.6,11.2,20.4,11.2z"/>
	<path class="st0" d="M23.8,11.7c-0.2,0-0.4,0-0.6,0c0-0.1-0.1-0.2-0.1-0.4c-0.2-0.5-0.5-0.9-0.8-1.1c-0.2-0.2-0.6-0.6-1.2-1
		c-0.2-0.1-0.7-0.3-1.4-0.4c-0.8-0.1-1.4,0.1-1.8,0.2c-0.3,0.1-0.7,0.2-1.2,0.6c-0.1,0.1-0.6,0.4-1.2,1c-0.4,0.4-0.6,0.8-0.7,1
		c-0.1,0.2-0.3,0.5-0.6,0.9c0,0-0.2,0.3-0.2,0.3c0,0,0,0,0,0.1c-0.7,0-1.7,0.2-2.8,0.7c0.1-0.2,0.2-0.6,0.3-1.1
		c0-0.1,0.1-0.5,0.1-1.1c0-0.4-0.1-0.4-0.1-0.4c-0.1-0.1-0.4,0.3-0.6,0.7c0.1-0.8,0-1.4-0.1-1.9c-0.3-2.3-1.5-3.8-2.2-4.6
		C8.1,4.4,8,4.4,7.8,4.4C7.5,4.5,7.7,5.9,7.9,7.1C7.2,6.2,5.7,4.4,5.2,4.7C4.5,5,5.7,8.2,5.7,8.3c0.6,1.6,1.3,2.8,1.8,3.5
		c-1.2-0.6-1.6-0.6-1.6-0.5c-0.2,0.3,1.1,1.5,1.4,1.7c0.9,0.8,1.4,1.3,2.1,1.4c0,0.1,0,0.1,0,0.2c0.1,0.3,0.3,0.5,0.4,0.6
		c-0.6,0-1.3,0-1.9,0c-0.1,0-0.3,0-0.4,0c0,0.1,0.1,0.2,0.2,0.4c0.6,0.8,1.9,0.8,1.9,0.9c0,0.1-1,0-1,0.1c0,0.1,0.5,0.4,0.6,0.4
		c0.7,0.3,1.3,0.4,1.6,0.4c0.9,0.1,1.6,0,1.9-0.1c0.9-0.2,2.2-0.4,3.2-1.4c0.3-0.3,0.7-0.8,0.9-1.3c0,0,0,0,0.1,0
		c0.1,0-0.1,1-0.7,1.7c-0.9,1.2-2.4,1.3-2.8,1.5c-0.4,0-0.7-0.1-1-0.1c0.4,0.2,0.7,0.3,1.1,0.5c0.2,0,0.4,0.1,0.6,0.1
		c0.3,0.1,0.8,0.2,1.3,0.2c0.4,1.2,0.9,2.5,1.3,3.7c0.3,0,0.6,0,1,0c-0.4-1.2-0.8-2.4-1.3-3.6c0.8,0,1.9,0,3-0.5
		c0.4-0.2,0.9-0.4,1.5-0.9c0.2-0.1,0.4-0.3,0.5-0.4c0,0,0,0,0,0c0,0,0,0,0,0c0.2-0.2,0.4-0.4,0.5-0.6c0.6-0.8,0.9-1.5,1-1.7
		c0.1-0.3,0.3-0.7,0.4-1.3c0-0.1,0-0.2,0-0.3c0.1,0,0.3,0.1,0.3,0.1c1.1,0.1,2.5-0.2,2.6-0.5C26.2,12.1,24.8,11.8,23.8,11.7z
		 M21.2,12.1c0,0.1,0,0.3-0.1,0.5c0,0-0.1,0.2-0.4,0.4c-0.1,0.1-0.3,0.2-0.5,0.3c-0.1,0-0.4,0.1-0.6-0.1c-0.3-0.1-0.4-0.4-0.5-0.5
		c-0.2-0.4-0.2-0.8-0.2-1c0-0.3,0-0.7,0.3-1c0.1-0.1,0.3-0.4,0.7-0.4c0.4-0.1,0.8,0.1,0.9,0.2c0.4,0.3,0.5,0.7,0.6,0.9
		C21.3,11.6,21.2,11.9,21.2,12.1z"/>
</g>
</svg>
